<svg width="23" height="21" viewBox="0 0 23 21" fill="none" xmlns="http://www.w3.org/2000/svg">
<path d="M8.05402 1.61609H2.32744C1.6949 1.61609 1.18213 2.07124 1.18213 2.63269V9.74887C1.18213 10.3103 1.6949 10.7655 2.32744 10.7655H8.05402C8.68656 10.7655 9.19933 10.3103 9.19933 9.74887V2.63269C9.19933 2.07124 8.68656 1.61609 8.05402 1.61609Z" stroke="#2E5283" stroke-width="2" stroke-linecap="round" stroke-linejoin="round"/>
<path d="M20.6524 1.61609H14.9258C14.2933 1.61609 13.7805 2.07124 13.7805 2.63269V5.68248C13.7805 6.24393 14.2933 6.69908 14.9258 6.69908H20.6524C21.2849 6.69908 21.7977 6.24393 21.7977 5.68248V2.63269C21.7977 2.07124 21.2849 1.61609 20.6524 1.61609Z" stroke="#2E5283" stroke-width="2" stroke-linecap="round" stroke-linejoin="round"/>
<path d="M20.6524 10.7655H14.9258C14.2933 10.7655 13.7805 11.2206 13.7805 11.7821V18.8983C13.7805 19.4597 14.2933 19.9149 14.9258 19.9149H20.6524C21.2849 19.9149 21.7977 19.4597 21.7977 18.8983V11.7821C21.7977 11.2206 21.2849 10.7655 20.6524 10.7655Z" stroke="#2E5283" stroke-width="2" stroke-linecap="round" stroke-linejoin="round"/>
<path d="M8.05402 14.8319H2.32744C1.6949 14.8319 1.18213 15.2871 1.18213 15.8485V18.8983C1.18213 19.4598 1.6949 19.9149 2.32744 19.9149H8.05402C8.68656 19.9149 9.19933 19.4598 9.19933 18.8983V15.8485C9.19933 15.2871 8.68656 14.8319 8.05402 14.8319Z" stroke="#2E5283" stroke-width="2" stroke-linecap="round" stroke-linejoin="round"/>
</svg>
