<svg width="20" height="21" viewBox="0 0 20 21" fill="none" xmlns="http://www.w3.org/2000/svg">
<path d="M18.4934 16.402C18.02 15.2806 17.333 14.2621 16.4707 13.403C15.611 12.5415 14.5926 11.8546 13.4717 11.3803C13.4617 11.3753 13.4516 11.3728 13.4416 11.3678C15.0051 10.2384 16.0214 8.39892 16.0214 6.3235C16.0214 2.88537 13.2358 0.0997314 9.79767 0.0997314C6.35954 0.0997314 3.5739 2.88537 3.5739 6.3235C3.5739 8.39892 4.59028 10.2384 6.15375 11.3703C6.14371 11.3753 6.13368 11.3778 6.12364 11.3828C4.99935 11.8571 3.99049 12.5372 3.12469 13.4055C2.26317 14.2652 1.57628 15.2836 1.10196 16.4045C0.635988 17.5018 0.384678 18.6783 0.361635 19.8702C0.360965 19.897 0.365663 19.9237 0.375452 19.9486C0.385242 19.9735 0.399924 19.9963 0.418634 20.0154C0.437344 20.0346 0.459703 20.0499 0.484394 20.0603C0.509085 20.0707 0.535609 20.076 0.562402 20.076H2.06815C2.17857 20.076 2.26641 19.9882 2.26892 19.8803C2.31911 17.9429 3.09708 16.1284 4.47233 14.7532C5.89527 13.3303 7.78498 12.5473 9.79767 12.5473C11.8104 12.5473 13.7001 13.3303 15.123 14.7532C16.4983 16.1284 17.2762 17.9429 17.3264 19.8803C17.3289 19.9907 17.4168 20.076 17.5272 20.076H19.0329C19.0597 20.076 19.0863 20.0707 19.1109 20.0603C19.1356 20.0499 19.158 20.0346 19.1767 20.0154C19.1954 19.9963 19.2101 19.9735 19.2199 19.9486C19.2297 19.9237 19.2344 19.897 19.2337 19.8702C19.2086 18.6706 18.9602 17.5037 18.4934 16.402ZM9.79767 10.64C8.64577 10.64 7.56163 10.1908 6.74602 9.37515C5.9304 8.55954 5.48118 7.4754 5.48118 6.3235C5.48118 5.1716 5.9304 4.08746 6.74602 3.27184C7.56163 2.45623 8.64577 2.00701 9.79767 2.00701C10.9496 2.00701 12.0337 2.45623 12.8493 3.27184C13.6649 4.08746 14.1142 5.1716 14.1142 6.3235C14.1142 7.4754 13.6649 8.55954 12.8493 9.37515C12.0337 10.1908 10.9496 10.64 9.79767 10.64Z" fill="#2E5283"/>
</svg>
