<svg width="21" height="19" viewBox="0 0 21 19" fill="none" xmlns="http://www.w3.org/2000/svg">
<path d="M20.1281 0.616089C20.0327 0.616089 19.9348 0.631688 19.8369 0.667343L5.36595 5.82836H1.24861C1.02768 5.82836 0.846924 5.99326 0.846924 6.19828V12.8612C0.846924 13.0663 1.02768 13.2312 1.24861 13.2312H3.80186C3.70897 13.4897 3.65876 13.7638 3.65876 14.0423C3.65876 15.5108 5.00945 16.7053 6.67144 16.7053C8.0623 16.7053 9.23474 15.8674 9.58119 14.7353L19.8394 18.3944C19.9373 18.4278 20.0352 18.4457 20.1306 18.4457C20.5549 18.4457 20.934 18.1292 20.934 17.7058V1.35592C20.9315 0.932524 20.5549 0.616089 20.1281 0.616089ZM6.67144 15.1075C6.00614 15.1075 5.46637 14.6306 5.46637 14.0423C5.46637 13.7927 5.56428 13.5543 5.74253 13.3649L7.87401 14.1248C7.8238 14.6729 7.30411 15.1075 6.67144 15.1075ZM19.1239 16.4089L6.03878 11.7426L5.71492 11.6267H2.65453V7.43282H5.71492L6.03878 7.31694L19.1239 2.65063V16.4089Z" fill="#2E5283"/>
</svg>
