<svg width="45" height="45" viewBox="0 0 45 45" fill="none" xmlns="http://www.w3.org/2000/svg">
<path fill-rule="evenodd" clip-rule="evenodd" d="M19.9227 0C16.9872 0 14.172 1.16611 12.0963 3.24179C10.0206 5.31747 8.85453 8.1327 8.85453 11.0682C8.85453 14.0036 10.0206 16.8188 12.0963 18.8945C14.172 20.9702 16.9872 22.1363 19.9227 22.1363C22.8581 22.1363 25.6734 20.9702 27.7491 18.8945C29.8247 16.8188 30.9908 14.0036 30.9908 11.0682C30.9908 8.1327 29.8247 5.31747 27.7491 3.24179C25.6734 1.16611 22.8581 0 19.9227 0ZM19.9227 24.3499C14.621 24.3499 9.79532 25.8862 6.24687 28.0511C4.47596 29.1314 2.96184 30.4064 1.86831 31.7922C0.79248 33.1513 0 34.7828 0 36.5249C0 38.3954 0.909803 39.8697 2.22027 40.9212C3.45991 41.9173 5.09578 42.577 6.83348 43.0374C10.3266 43.9605 14.9885 44.2726 19.9227 44.2726C20.4333 44.2726 20.9387 44.2689 21.439 44.2616C21.8098 44.2565 22.1733 44.1583 22.4962 43.9762C22.8191 43.794 23.0911 43.5336 23.2873 43.219C23.4834 42.9043 23.5973 42.5455 23.6186 42.1753C23.6399 41.8051 23.5679 41.4356 23.4092 41.1005C22.5698 39.3238 22.135 37.3831 22.1363 35.4181C22.1363 32.6466 22.9841 30.0788 24.4318 27.9515C24.647 27.6354 24.7767 27.2689 24.8081 26.8878C24.8395 26.5067 24.7716 26.1239 24.6111 25.7768C24.4506 25.4297 24.2029 25.1301 23.8922 24.9072C23.5815 24.6843 23.2183 24.5457 22.838 24.5049C21.8847 24.4016 20.9129 24.3499 19.9227 24.3499ZM37.3307 26.5569C37.1358 26.2225 36.8566 25.945 36.521 25.7522C36.1855 25.5593 35.8052 25.4578 35.4181 25.4578C35.031 25.4578 34.6507 25.5593 34.3152 25.7522C33.9796 25.945 33.7004 26.2225 33.5055 26.5569L31.4911 30.0146L27.5818 30.8602C27.2033 30.9421 26.8529 31.1218 26.5656 31.3815C26.2783 31.6412 26.0641 31.9717 25.9445 32.34C25.8248 32.7083 25.8039 33.1016 25.8838 33.4805C25.9637 33.8594 26.1416 34.2108 26.3998 34.4994L29.065 37.4834L28.6621 41.4635C28.6231 41.8487 28.6857 42.2373 28.8438 42.5907C29.0019 42.9441 29.2499 43.2498 29.5631 43.4774C29.8762 43.705 30.2436 43.8465 30.6285 43.8878C31.0135 43.929 31.4025 43.8686 31.7568 43.7126L35.4181 42.0966L39.0794 43.7126C39.4337 43.8686 39.8228 43.929 40.2077 43.8878C40.5926 43.8465 40.96 43.705 41.2731 43.4774C41.5863 43.2498 41.8343 42.9441 41.9924 42.5907C42.1505 42.2373 42.2131 41.8487 42.1741 41.4635L41.7712 37.4812L44.4364 34.4994C44.6946 34.2108 44.8725 33.8594 44.9524 33.4805C45.0323 33.1016 45.0114 32.7083 44.8917 32.34C44.7721 31.9717 44.5579 31.6412 44.2706 31.3815C43.9833 31.1218 43.6329 30.9421 43.2544 30.8602L39.3451 30.0146L37.3307 26.5569Z" fill="#2E5283"/>
</svg>
