<svg width="46" height="46" viewBox="0 0 46 46" fill="none" xmlns="http://www.w3.org/2000/svg">
<path fill-rule="evenodd" clip-rule="evenodd" d="M19.6757 1.75002C20.4435 0.98322 21.4708 0.532024 22.5549 0.485447C23.639 0.438869 24.7012 0.800294 25.532 1.49841L25.8096 1.75219L29.9307 5.87111H35.7566C36.8507 5.87131 37.9043 6.2849 38.7063 7.029C39.5083 7.77311 39.9996 8.79279 40.0816 9.88376L40.0946 10.2091V16.035L44.2157 20.1561C44.9831 20.924 45.4347 21.9518 45.4813 23.0364C45.5279 24.121 45.1661 25.1837 44.4673 26.0146L44.2136 26.2901L40.0925 30.4112V36.2371C40.0928 37.3315 39.6795 38.3856 38.9353 39.1881C38.1911 39.9906 37.1712 40.4822 36.0798 40.5642L35.7566 40.5751H29.9329L25.8118 44.6962C25.0439 45.4636 24.0161 45.9152 22.9315 45.9617C21.8469 46.0083 20.7842 45.6465 19.9533 44.9478L19.6779 44.6962L15.5568 40.5751H9.72866C8.63423 40.5754 7.58012 40.1621 6.77763 39.4179C5.97514 38.6738 5.48359 37.6538 5.4015 36.5624L5.39066 36.2371V30.4112L1.26956 26.2901C0.502158 25.5222 0.05058 24.4944 0.00399832 23.4098C-0.0425834 22.3251 0.319218 21.2625 1.01796 20.4316L1.26956 20.1561L5.39066 16.035V10.2091C5.39086 9.11506 5.80444 8.06149 6.54855 7.25946C7.29266 6.45743 8.31234 5.96618 9.40331 5.88413L9.72866 5.87111H15.5546L19.6757 1.75002ZM29.421 16.6792L20.2158 25.8845L16.381 22.0497C15.974 21.643 15.4221 21.4146 14.8467 21.4148C14.2714 21.415 13.7196 21.6438 13.3129 22.0508C12.9062 22.4577 12.6779 23.0096 12.6781 23.585C12.6783 24.1604 12.907 24.7121 13.314 25.1188L18.5283 30.3331C18.7498 30.5547 19.0129 30.7306 19.3025 30.8506C19.592 30.9705 19.9023 31.0323 20.2158 31.0323C20.5292 31.0323 20.8395 30.9705 21.1291 30.8506C21.4186 30.7306 21.6817 30.5547 21.9032 30.3331L32.488 19.7462C32.8831 19.3371 33.1017 18.7892 33.0967 18.2205C33.0918 17.6518 32.8637 17.1078 32.4615 16.7057C32.0594 16.3035 31.5154 16.0754 30.9467 16.0704C30.378 16.0655 29.8301 16.2841 29.421 16.6792Z" fill="#2E5283"/>
</svg>
