<svg width="45" height="46" viewBox="0 0 45 46" fill="none" xmlns="http://www.w3.org/2000/svg">
<path d="M22.5 0.5C34.9268 0.5 45 10.5733 45 23C45 35.4268 34.9268 45.5 22.5 45.5H4.5C3.30653 45.5 2.16193 45.0259 1.31802 44.182C0.474106 43.3381 0 42.1935 0 41V23C0 10.5733 10.0733 0.5 22.5 0.5ZM22.5 27.5H15.75C15.1533 27.5 14.581 27.7371 14.159 28.159C13.7371 28.581 13.5 29.1533 13.5 29.75C13.5 30.3467 13.7371 30.919 14.159 31.341C14.581 31.7629 15.1533 32 15.75 32H22.5C23.0967 32 23.669 31.7629 24.091 31.341C24.5129 30.919 24.75 30.3467 24.75 29.75C24.75 29.1533 24.5129 28.581 24.091 28.159C23.669 27.7371 23.0967 27.5 22.5 27.5ZM29.25 18.5H15.75C15.1765 18.5006 14.6249 18.7202 14.2079 19.1139C13.7909 19.5076 13.54 20.0456 13.5064 20.6181C13.4728 21.1906 13.659 21.7544 14.0271 22.1941C14.3952 22.6339 14.9173 22.9165 15.4868 22.9842L15.75 23H29.25C29.8235 22.9994 30.3751 22.7798 30.7921 22.3861C31.2091 21.9924 31.46 21.4544 31.4936 20.8819C31.5272 20.3094 31.341 19.7456 30.9729 19.3059C30.6048 18.8661 30.0827 18.5835 29.5132 18.5158L29.25 18.5Z" fill="#2E5283"/>
</svg>
