<svg width="48" height="48" viewBox="0 0 48 48" fill="none" xmlns="http://www.w3.org/2000/svg">
<path d="M16.5906 8.15762C18.0054 4.0173 23.7261 3.89191 25.4036 7.78145L25.5455 8.15999L27.4548 13.7435C27.8924 15.024 28.5994 16.1958 29.5283 17.1798C30.4573 18.1638 31.5864 18.9372 32.8396 19.4477L33.353 19.6393L38.9365 21.5462C43.0768 22.9611 43.2022 28.6818 39.3151 30.3592L38.9365 30.5012L33.353 32.4105C32.072 32.8477 30.8998 33.5547 29.9154 34.4836C28.9309 35.4125 28.1572 36.5418 27.6464 37.7952L27.4548 38.3063L25.5479 43.8922C24.1331 48.0325 18.4123 48.1579 16.7373 44.2707L16.5906 43.8922L14.6837 38.3086C14.2464 37.0277 13.5395 35.8555 12.6105 34.871C11.6816 33.8866 10.5523 33.1129 9.29888 32.6021L8.78785 32.4105L3.20432 30.5035C-0.938369 29.0887 -1.06376 23.368 2.82578 21.6929L3.20432 21.5462L8.78785 19.6393C10.0683 19.2018 11.2401 18.4947 12.2241 17.5658C13.2081 16.6369 13.9815 15.5077 14.492 14.2545L14.6837 13.7435L16.5906 8.15762ZM39.9964 4.27489e-07C40.439 -5.58286e-07 40.8728 0.124158 41.2484 0.358367C41.6239 0.592575 41.9263 0.927439 42.121 1.3249L42.2346 1.60171L43.0626 4.02913L45.4924 4.85719C45.936 5.00789 46.3248 5.28688 46.6097 5.6588C46.8945 6.03071 47.0625 6.47882 47.0924 6.94633C47.1223 7.41384 47.0128 7.8797 46.7776 8.28488C46.5425 8.69005 46.1923 9.0163 45.7716 9.22228L45.4924 9.33584L43.065 10.1639L42.2369 12.5937C42.086 13.0371 41.8068 13.4258 41.4347 13.7104C41.0627 13.995 40.6145 14.1627 40.147 14.1924C39.6795 14.222 39.2137 14.1122 38.8087 13.8769C38.4037 13.6416 38.0776 13.2913 37.8719 12.8705L37.7583 12.5937L36.9302 10.1663L34.5004 9.33821C34.0569 9.18751 33.668 8.90852 33.3832 8.5366C33.0984 8.16469 32.9303 7.71658 32.9004 7.24907C32.8705 6.78156 32.9801 6.3157 33.2152 5.91052C33.4504 5.50535 33.8005 5.1791 34.2213 4.97312L34.5004 4.85956L36.9279 4.03149L37.7559 1.60171C37.9155 1.13427 38.2173 0.728481 38.6191 0.441238C39.0209 0.153994 39.5025 -0.000296403 39.9964 4.27489e-07Z" fill="#2E5283"/>
</svg>
