<svg width="22" height="25" viewBox="0 0 22 25" fill="none" xmlns="http://www.w3.org/2000/svg">
<path d="M13.7113 2.69793C14.4489 1.96479 15.4495 1.55283 16.4928 1.55268C17.5361 1.55254 18.5367 1.96421 19.2746 2.69715C20.0124 3.43009 20.427 4.42425 20.4272 5.46092C20.4273 6.4976 20.013 7.49188 19.2754 8.22502L8.96165 18.2856L8.95693 18.2903C8.66041 18.5749 8.26327 18.7324 7.85104 18.7288C7.43881 18.7252 7.04448 18.5609 6.75298 18.2713C6.46148 17.9816 6.29613 17.5898 6.29255 17.1802C6.28897 16.7706 6.44744 16.376 6.73383 16.0814L16.8589 6.02075C17.0021 5.87343 17.0813 5.67612 17.0795 5.47132C17.0777 5.26651 16.995 5.0706 16.8493 4.92578C16.7035 4.78096 16.5064 4.69881 16.3003 4.69703C16.0941 4.69525 15.8956 4.77398 15.7473 4.91627L5.62227 14.9769C5.03408 15.5612 4.7028 16.3532 4.70096 17.1796C4.70096 18.898 6.10809 20.304 7.84538 20.304C8.67664 20.303 9.47367 19.975 10.0622 19.3917L20.3759 9.33106L20.3806 9.32638C21.4135 8.30409 21.9959 6.91631 22 5.46772C22 2.45267 19.5316 1.54778e-08 16.4973 1.54778e-08C15.0417 -0.000108734 13.6453 0.572854 12.6139 1.59345L2.30019 11.6541L2.29548 11.6588C1.56454 12.3844 0.9854 13.2467 0.591436 14.1959C0.197473 15.145 -0.0035195 16.1623 4.66348e-05 17.189C4.66348e-05 21.5007 3.5218 25 7.8611 25C10.0308 25 11.996 24.1252 13.4267 22.7192L20.2187 15.9704C20.3619 15.8231 20.4411 15.6258 20.4393 15.421C20.4375 15.2162 20.3549 15.0203 20.2091 14.8755C20.0634 14.7307 19.8662 14.6485 19.6601 14.6467C19.454 14.6449 19.2554 14.7237 19.1071 14.866L12.3152 21.6147C11.7317 22.1962 11.0382 22.6571 10.2745 22.9708C9.51083 23.2845 8.69218 23.4448 7.86582 23.4425C4.39123 23.4425 1.57697 20.6461 1.57697 17.1937C1.57697 15.4752 2.27975 13.913 3.41646 12.7726L13.7302 2.71199L13.7349 2.7073L13.7113 2.69793Z" fill="#1E1E1E"/>
</svg>
