<svg width="12" height="12" viewBox="0 0 12 12" fill="none" xmlns="http://www.w3.org/2000/svg">
<path d="M9.28928 6.49912C9.23069 6.44043 9.16111 6.39387 9.08451 6.36211C9.00791 6.33034 8.9258 6.31399 8.84288 6.31399C8.75995 6.31399 8.67785 6.33034 8.60125 6.36211C8.52465 6.39387 8.45506 6.44043 8.39648 6.49912L7.39003 7.50557C6.92343 7.36666 6.05273 7.05096 5.50088 6.49912C4.94904 5.94727 4.63334 5.07657 4.49443 4.60997L5.50088 3.60352C5.55957 3.54493 5.60613 3.47535 5.63789 3.39875C5.66966 3.32216 5.68601 3.24005 5.68601 3.15712C5.68601 3.0742 5.66966 2.99209 5.63789 2.91549C5.60613 2.83889 5.55957 2.76931 5.50088 2.71072L2.97529 0.185127C2.9167 0.126441 2.84712 0.079883 2.77052 0.0481169C2.69392 0.0163508 2.61181 0 2.52889 0C2.44597 0 2.36386 0.0163508 2.28726 0.0481169C2.21066 0.079883 2.14108 0.126441 2.08249 0.185127L0.370137 1.89748C0.130205 2.13741 -0.00491447 2.467 0.000136726 2.80354C0.0146589 3.70265 0.252696 6.82555 2.71389 9.28674C5.17508 11.7479 8.29798 11.9853 9.19773 12.0005H9.2154C9.54878 12.0005 9.86385 11.8692 10.1025 11.6305L11.8149 9.91814C11.8736 9.85956 11.9201 9.78997 11.9519 9.71338C11.9836 9.63678 12 9.55467 12 9.47174C12 9.38882 11.9836 9.30671 11.9519 9.23011C11.9201 9.15351 11.8736 9.08393 11.8149 9.02534L9.28928 6.49912ZM9.20909 10.7371C8.4211 10.7238 5.72503 10.5123 3.60669 8.39331C1.4814 6.26802 1.27556 3.56248 1.26293 2.79028L2.52889 1.52432L4.16169 3.15712L3.34529 3.97352C3.27107 4.04768 3.21651 4.13916 3.18652 4.2397C3.15654 4.34024 3.15208 4.44666 3.17355 4.54936C3.1887 4.62197 3.55933 6.34379 4.60745 7.39191C5.65558 8.44004 7.3774 8.81067 7.45001 8.82582C7.55264 8.84789 7.65918 8.84379 7.75981 8.81389C7.86044 8.78399 7.95193 8.72925 8.02585 8.65471L8.84288 7.83831L10.4757 9.47111L9.20909 10.7371Z" fill="white"/>
</svg>
