<svg width="15" height="11" viewBox="0 0 15 11" fill="none" xmlns="http://www.w3.org/2000/svg">
<path d="M13.1728 0H2.716C1.89215 0 1.22217 0.6578 1.22217 1.46667V5.13333H2.716V2.93333L7.49624 6.45333C7.62558 6.54842 7.78281 6.59982 7.94439 6.59982C8.10597 6.59982 8.2632 6.54842 8.39254 6.45333L13.1728 2.93333V9.53333H7.19748V11H13.1728C13.9966 11 14.6666 10.3422 14.6666 9.53333V1.46667C14.6666 0.6578 13.9966 0 13.1728 0ZM7.94439 4.95L3.21344 1.46667H12.6753L7.94439 4.95Z" fill="white"/>
<path d="M0 6.11111H4.75309V7.33333H0V6.11111ZM1.35802 7.94444H5.4321V9.16667H1.35802V7.94444ZM3.39506 9.77778H6.11111V11H3.39506V9.77778Z" fill="white"/>
</svg>
