<svg width="18" height="16" viewBox="0 0 18 16" fill="none" xmlns="http://www.w3.org/2000/svg">
<path d="M7.3311 13.684C8.95766 13.6837 10.5374 13.1755 11.8186 12.2403L15.8471 16L17.1429 14.7907L13.1144 11.031C14.1169 9.83508 14.6618 8.36043 14.6622 6.84199C14.6622 3.06949 11.3733 0 7.3311 0C3.28891 0 0 3.06949 0 6.84199C0 10.6145 3.28891 13.684 7.3311 13.684ZM7.3311 1.7105C10.3634 1.7105 12.8294 4.01197 12.8294 6.84199C12.8294 9.67201 10.3634 11.9735 7.3311 11.9735C4.29877 11.9735 1.83277 9.67201 1.83277 6.84199C1.83277 4.01197 4.29877 1.7105 7.3311 1.7105Z" fill="#2E5283"/>
</svg>
