<svg width="108" height="30" viewBox="0 0 108 30" fill="none" xmlns="http://www.w3.org/2000/svg">
<path d="M24.2227 0.00195312C27.4268 0.0831951 29.9998 2.70598 30 5.92969V24.0693L29.998 24.2227C29.9181 27.3761 27.3761 29.9171 24.2227 29.9971L24.0693 30H5.92969L5.77734 29.9971C2.62382 29.9172 0.0819457 27.3761 0.00195312 24.2227L0 24.0693V5.92969C0.000242947 2.70591 2.57305 0.08308 5.77734 0.00195312L5.92969 0H24.0693L24.2227 0.00195312ZM5.92969 1.39551C3.42554 1.39576 1.39575 3.42555 1.39551 5.92969V24.0693C1.39551 26.5737 3.42539 28.6042 5.92969 28.6045H9.76758V20.9297C9.76765 20.2938 10.0514 19.7246 10.499 19.3408C8.9768 18.6878 7.79695 17.7286 6.9043 16.6416C5.32426 14.7175 4.67187 12.4313 4.54688 10.833L4.53613 10.6807L4.53516 10.6094C4.5501 10.2561 4.83087 9.96469 5.19141 9.94336C5.55194 9.92219 5.86452 10.1783 5.9209 10.5273L5.92871 10.5986L5.94922 10.8623C6.08208 12.2189 6.65841 14.1434 7.98242 15.7559C9.37209 17.4481 11.6162 18.8368 15.1738 18.8369C18.7294 18.8369 20.8436 17.4517 22.083 15.7832C23.2692 14.1862 23.6942 12.273 23.7207 10.917V10.6533L23.7227 10.582C23.7514 10.2297 24.0433 9.94869 24.4043 9.94141C24.7655 9.93435 25.0688 10.2036 25.1113 10.5547L25.1162 10.626L25.1172 10.7783C25.1176 12.3765 24.645 14.6753 23.2041 16.6152C22.3057 17.8247 21.0461 18.8722 19.3389 19.5244C19.6764 19.896 19.8837 20.3882 19.8838 20.9297V28.6045H24.0693C26.5739 28.6045 28.6045 26.5738 28.6045 24.0693V5.92969C28.6042 3.42539 26.5737 1.39551 24.0693 1.39551H5.92969ZM11.8604 20.2324C11.4751 20.2324 11.1632 20.5445 11.1631 20.9297V28.6045H18.4883V20.9297C18.4881 20.5445 18.1753 20.2324 17.79 20.2324H11.8604ZM15 5.23242C18.0823 5.23252 20.5809 7.73121 20.5811 10.8135C20.5811 13.8959 18.0824 16.3954 15 16.3955C11.9175 16.3955 9.41895 13.896 9.41895 10.8135C9.41912 7.73115 11.9176 5.23242 15 5.23242ZM15 6.62793C12.6882 6.62793 10.8136 8.50177 10.8135 10.8135C10.8135 13.1253 12.6881 15 15 15C17.3118 14.9999 19.1855 13.1253 19.1855 10.8135C19.1854 8.50183 17.3117 6.62803 15 6.62793Z" fill="white"/>
<path d="M39 9.1264H40.5935V23.8736H39V9.1264Z" fill="white"/>
<path d="M59.1716 9.1264V23.8736H57.8581L48.168 11.9073V23.8736H46.5746V9.1264H47.8881L57.5997 21.0927V9.1264H59.1716Z" fill="white"/>
<path d="M69.3241 24C68.2044 24 67.1277 23.8244 66.0941 23.4733C65.0748 23.1222 64.2853 22.6587 63.7254 22.0829L64.3499 20.882C64.8954 21.4157 65.6204 21.8511 66.5248 22.1882C67.4292 22.5112 68.3623 22.6728 69.3241 22.6728C70.6735 22.6728 71.6856 22.434 72.3603 21.9565C73.035 21.4649 73.3724 20.8329 73.3724 20.0604C73.3724 19.4705 73.1858 19 72.8125 18.6489C72.4536 18.2978 72.0086 18.0309 71.4775 17.8483C70.9463 17.6517 70.207 17.441 69.2595 17.2163C68.1254 16.9354 67.221 16.6685 66.5463 16.4157C65.8716 16.1489 65.2902 15.7486 64.8021 15.2149C64.3284 14.6812 64.0915 13.9579 64.0915 13.0449C64.0915 12.3006 64.2925 11.6264 64.6944 11.0225C65.0964 10.4045 65.7137 9.91292 66.5463 9.54775C67.3789 9.18258 68.4125 9 69.6471 9C70.5085 9 71.3483 9.11938 72.1665 9.35815C72.9991 9.58287 73.7169 9.89888 74.3199 10.3062L73.7815 11.5492C73.1499 11.1419 72.4752 10.8399 71.7574 10.6433C71.0396 10.4326 70.3362 10.3272 69.6471 10.3272C68.3264 10.3272 67.3287 10.5801 66.654 11.0857C65.9936 11.5772 65.6634 12.2163 65.6634 13.0028C65.6634 13.5927 65.8429 14.0702 66.2018 14.4354C66.575 14.7865 67.0344 15.0604 67.5799 15.257C68.1398 15.4396 68.8863 15.6433 69.8194 15.868C70.9248 16.1348 71.8148 16.4017 72.4895 16.6685C73.1786 16.9213 73.76 17.3146 74.2337 17.8483C74.7075 18.368 74.9443 19.0772 74.9443 19.9761C74.9443 20.7205 74.7362 21.4017 74.3199 22.0197C73.9179 22.6236 73.2934 23.1081 72.4465 23.4733C71.5995 23.8244 70.5587 24 69.3241 24Z" fill="white"/>
<path d="M85.1347 9.1264C87.0583 9.1264 88.5657 9.57584 89.6567 10.4747C90.7477 11.3736 91.2933 12.6096 91.2933 14.1826C91.2933 15.7556 90.7477 16.9916 89.6567 17.8904C88.5657 18.7753 87.0583 19.2177 85.1347 19.2177H81.0864V23.8736H79.4929V9.1264H85.1347ZM85.0916 17.8483C86.5846 17.8483 87.7259 17.5323 88.5154 16.9003C89.305 16.2542 89.6998 15.3483 89.6998 14.1826C89.6998 12.9888 89.305 12.0758 88.5154 11.4438C87.7259 10.7978 86.5846 10.4747 85.0916 10.4747H81.0864V17.8483H85.0916Z" fill="white"/>
<path d="M104.512 19.934H96.1135L94.3047 23.8736H92.6467L99.5374 9.1264H101.109L108 23.8736H106.32L104.512 19.934ZM103.93 18.6699L100.313 10.7486L96.6949 18.6699H103.93Z" fill="white"/>
</svg>
