<?xml version="1.0" encoding="utf-8"?>
<!-- Generator: Adobe Illustrator 28.0.0, SVG Export Plug-In . SVG Version: 6.00 Build 0)  -->
<svg version="1.1" id="Layer_1" xmlns="http://www.w3.org/2000/svg" xmlns:xlink="http://www.w3.org/1999/xlink" x="0px" y="0px"
	 viewBox="0 0 320 320" style="enable-background:new 0 0 320 320;" xml:space="preserve">
<style type="text/css">
	.st0{fill:#2E5283;}
</style>
<g id="XMLID_12_">
	<path id="XMLID_13_" class="st0" d="M169.4,194.4c-5.9,5.9-5.9,15.4,0,21.2c2.9,2.9,6.8,4.4,10.6,4.4s7.7-1.5,10.6-4.4l45-45
		c0.4-0.4,0.7-0.7,1-1.1c0.1-0.2,0.3-0.3,0.4-0.5c0.2-0.2,0.3-0.4,0.5-0.7c0.1-0.2,0.3-0.4,0.4-0.6c0.1-0.2,0.3-0.4,0.4-0.6
		c0.1-0.2,0.2-0.4,0.3-0.7c0.1-0.2,0.2-0.4,0.3-0.7c0.1-0.2,0.2-0.4,0.2-0.7c0.1-0.2,0.2-0.5,0.3-0.7s0.1-0.4,0.2-0.7
		c0.1-0.2,0.1-0.5,0.2-0.8c0.1-0.3,0.1-0.5,0.1-0.8c0-0.2,0.1-0.4,0.1-0.7c0-0.5,0.1-1,0.1-1.5l0,0l0,0c0-0.5,0-1-0.1-1.5
		c0-0.2-0.1-0.4-0.1-0.7s-0.1-0.5-0.1-0.8c-0.1-0.3-0.1-0.5-0.2-0.7c-0.1-0.2-0.1-0.5-0.2-0.7c-0.1-0.2-0.2-0.5-0.2-0.7
		c-0.1-0.2-0.2-0.5-0.2-0.7c-0.1-0.2-0.2-0.4-0.3-0.6c-0.1-0.2-0.2-0.5-0.3-0.7s-0.2-0.4-0.4-0.6c-0.1-0.2-0.3-0.4-0.4-0.7
		c-0.1-0.2-0.3-0.4-0.5-0.6c-0.1-0.2-0.3-0.4-0.4-0.5c-0.3-0.4-0.6-0.7-0.9-1c0,0,0,0,0-0.1l-45-45c-5.9-5.9-15.4-5.9-21.2,0
		c-5.9,5.9-5.9,15.4,0,21.2l19.4,19.4H15c-8.3,0-15,6.7-15,15s6.7,15,15,15h173.8L169.4,194.4z"/>
	<path id="XMLID_14_" class="st0" d="M305,25H115c-8.3,0-15,6.7-15,15v60c0,8.3,6.7,15,15,15s15-6.7,15-15V55h160v210H130v-45
		c0-8.3-6.7-15-15-15s-15,6.7-15,15v60c0,8.3,6.7,15,15,15h190c8.3,0,15-6.7,15-15V40C320,31.7,313.3,25,305,25z"/>
</g>
</svg>
