<svg width="685" height="685" viewBox="0 0 685 685" fill="none" xmlns="http://www.w3.org/2000/svg">
<path opacity="0.0344828" d="M147.158 344.651C125.029 335.743 128.228 303.595 151.411 299.044L151.963 298.942L232.642 284.821C246.195 282.449 255.488 269.912 253.903 256.321L253.819 255.673L242.317 174.579C238.968 150.96 268.409 137.655 283.942 155.458L284.305 155.884L336.875 218.695C345.706 229.245 361.209 231.025 372.187 222.857L372.705 222.46L437.186 171.952C455.965 157.243 482.207 176.087 474.557 198.439L474.369 198.968L446.259 275.9C441.537 288.822 447.747 303.138 460.309 308.561L460.912 308.813L536.893 339.4C559.022 348.308 555.824 380.456 532.641 385.007L532.089 385.109L451.409 399.231C437.857 401.603 428.564 414.139 430.149 427.73L430.233 428.378L441.734 509.473C445.084 533.091 415.643 546.396 400.11 528.594L399.746 528.168L347.176 465.357C338.346 454.806 322.842 453.027 311.865 461.195L311.346 461.591L246.866 512.099C228.086 526.809 201.845 507.965 209.495 485.612L209.682 485.083L237.793 408.152C242.515 395.229 236.304 380.913 223.742 375.49L223.139 375.239L147.158 344.651Z" stroke="white" stroke-width="2"/>
<path opacity="0.0689655" d="M150.66 334.983C129.028 324.929 133.904 292.992 157.294 289.661L157.85 289.588L236.799 279.995C250.457 278.336 260.394 266.303 259.522 252.648L259.472 251.996L252.441 172.777C250.332 149.016 280.429 137.27 295.009 155.861L295.35 156.305L343.133 219.882C351.399 230.88 366.787 233.469 378.177 225.887L378.717 225.517L443.807 179.819C463.331 166.112 488.55 186.304 479.74 208.225L479.526 208.744L448.359 281.913C442.967 294.57 448.42 309.192 460.681 315.265L461.27 315.548L533.392 349.068C555.024 359.122 550.147 391.059 526.757 394.39L526.202 394.463L447.251 404.057C433.594 405.716 423.657 417.749 424.528 431.404L424.579 432.055L431.609 511.275C433.718 535.036 403.622 546.781 389.043 528.19L388.701 527.745L340.918 464.17C332.652 453.171 317.263 450.583 305.873 458.165L305.335 458.534L240.244 504.232C220.72 517.939 195.5 497.747 204.311 475.826L204.525 475.308L235.692 402.138C241.083 389.48 235.631 374.859 223.37 368.786L222.781 368.504L150.66 334.983Z" stroke="white" stroke-width="2"/>
<path opacity="0.103448" d="M154.63 325.688C133.554 314.515 140.095 282.877 163.627 280.774L164.187 280.73L241.16 275.446C254.885 274.503 265.437 263.007 265.282 249.325L265.267 248.672L262.477 171.568C261.614 147.728 292.285 137.574 305.872 156.902L306.189 157.364L349.252 221.383C356.932 232.798 372.164 236.189 383.935 229.213L384.493 228.873L449.872 187.906C470.086 175.24 494.215 196.723 484.27 218.153L484.028 218.66L450.119 287.963C444.072 300.321 448.752 315.208 460.679 321.914L461.252 322.228L529.421 358.363C550.497 369.536 543.956 401.174 520.424 403.276L519.865 403.321L442.892 408.606C429.166 409.548 418.614 421.045 418.769 434.727L418.784 435.38L421.574 512.484C422.437 536.323 391.767 546.477 378.18 527.149L377.862 526.686L334.799 462.669C327.119 451.253 311.887 447.863 300.116 454.838L299.558 455.178L234.179 496.145C213.965 508.812 189.836 487.329 199.781 465.898L200.023 465.391L233.932 396.088C239.979 383.73 235.299 368.844 223.373 362.137L222.8 361.824L154.63 325.688Z" stroke="white" stroke-width="2"/>
<path opacity="0.137931" d="M159.041 316.786C138.578 304.526 146.766 273.274 170.375 272.406L170.936 272.391L245.705 271.18C259.461 270.957 270.601 260.029 271.162 246.358L271.18 245.705L272.391 170.936C272.777 147.084 303.936 138.55 316.493 158.562L316.786 159.041L355.219 223.186C362.291 234.988 377.324 239.171 389.445 232.821L390.019 232.511L455.377 196.176C476.226 184.585 499.197 207.301 488.144 228.182L487.876 228.675L451.541 294.032C444.856 306.057 448.75 321.168 460.309 328.489L460.865 328.832L525.011 367.265C545.475 379.525 537.286 410.778 513.676 411.646L513.116 411.661L438.347 412.872C424.591 413.095 413.451 424.023 412.89 437.694L412.872 438.347L411.661 513.116C411.274 536.968 380.115 545.502 367.558 525.489L367.266 525.011L328.832 460.866C321.76 449.064 306.727 444.88 294.607 451.23L294.032 451.541L228.675 487.876C207.826 499.467 184.855 476.75 195.908 455.869L196.175 455.377L232.511 390.019C239.196 377.994 235.302 362.883 223.743 355.562L223.186 355.22L159.041 316.786Z" stroke="white" stroke-width="2"/>
<path opacity="0.172414" d="M163.859 308.299C144.066 294.985 153.878 264.204 177.501 264.573L178.062 264.588L250.417 267.205C264.166 267.702 275.862 257.373 277.138 243.749L277.19 243.098L282.15 170.866C283.784 147.067 315.347 140.175 326.839 160.817L327.107 161.31L361.018 225.28C367.462 237.436 382.256 242.4 394.692 236.693L395.282 236.413L460.316 204.593C481.744 194.108 503.494 217.996 491.364 238.27L491.071 238.748L452.627 300.101C445.321 311.759 448.419 327.054 459.58 334.97L460.117 335.341L520.192 375.753C539.985 389.067 530.173 419.848 506.55 419.479L505.989 419.464L433.634 416.846C419.885 416.349 408.189 426.679 406.913 440.302L406.861 440.954L401.901 513.186C400.266 536.985 368.704 543.877 357.212 523.234L356.944 522.742L323.033 458.771C316.589 446.616 301.795 441.651 289.359 447.359L288.769 447.638L223.734 479.459C202.307 489.944 180.556 466.055 192.687 445.781L192.98 445.303L231.424 383.951C238.73 372.293 235.632 356.998 224.471 349.082L223.934 348.71L163.859 308.299Z" stroke="white" stroke-width="2"/>
<path opacity="0.206897" d="M169.056 300.244C149.987 285.912 161.397 255.687 184.968 257.292L185.527 257.336L255.279 263.526C268.983 264.743 281.204 255.039 283.19 241.502L283.278 240.854L291.724 171.339C294.602 147.659 326.482 142.427 336.878 163.643L337.12 164.15L366.635 227.651C372.434 240.128 386.948 245.86 399.665 240.811L400.269 240.563L464.694 213.121C486.641 203.772 507.111 228.766 493.936 248.376L493.619 248.839L453.381 306.151C445.476 317.411 447.769 332.846 458.499 341.336L459.017 341.734L514.995 383.807C534.065 398.139 522.655 428.364 499.084 426.76L498.524 426.715L428.772 420.525C415.068 419.309 402.847 429.013 400.861 442.551L400.774 443.197L392.327 512.712C389.45 536.393 357.569 541.624 347.173 520.409L346.931 519.903L317.417 456.4C311.618 443.924 297.104 438.192 284.386 443.241L283.782 443.489L219.357 470.932C197.41 480.28 176.94 455.286 190.115 435.675L190.433 435.213L230.671 377.901C238.576 366.641 236.282 351.205 225.551 342.716L225.034 342.317L169.056 300.244Z" stroke="white" stroke-width="2"/>
<path opacity="0.241379" d="M174.599 292.638C156.305 277.328 169.282 247.741 192.737 250.577L193.293 250.65L260.273 260.149C273.895 262.081 286.606 253.03 289.298 239.615L289.42 238.973L301.083 172.336C305.196 148.838 337.307 145.283 346.578 167.013L346.793 167.532L372.056 230.288C377.195 243.05 391.388 249.533 404.352 245.157L404.969 244.941L468.51 221.724C490.916 213.537 510.05 239.567 495.867 258.462L495.526 258.907L453.809 312.164C445.325 322.995 446.808 338.53 457.08 347.569L457.576 347.994L509.453 391.414C527.746 406.724 514.769 436.31 491.314 433.474L490.759 433.402L423.779 423.902C410.157 421.97 397.445 431.021 394.752 444.436L394.631 445.078L382.968 511.716C378.855 535.214 346.744 538.768 337.473 517.038L337.259 516.52L311.995 453.764C306.857 441.001 292.663 434.518 279.698 438.894L279.083 439.111L215.541 462.328C193.135 470.515 174.001 444.484 188.185 425.589L188.526 425.145L230.242 371.888C238.726 361.057 237.244 345.522 226.972 336.483L226.476 336.057L174.599 292.638Z" stroke="white" stroke-width="2"/>
<path opacity="0.275862" d="M180.455 285.494C162.988 269.247 177.495 240.381 200.769 244.44L201.321 244.542L265.38 257.077C278.882 259.719 292.05 251.347 295.441 238.091L295.595 237.456L310.199 173.836C315.536 150.586 347.789 148.716 355.91 170.902L356.098 171.431L377.271 233.174C381.734 246.189 395.569 253.407 408.745 249.715L409.372 249.531L471.769 230.369C494.573 223.365 512.319 250.362 497.166 268.488L496.802 268.915L453.917 318.124C444.878 328.497 445.545 344.087 455.329 353.652L455.802 354.102L503.596 398.559C521.063 414.806 506.556 443.673 483.282 439.613L482.73 439.511L418.671 426.976C405.169 424.334 392 432.707 388.61 445.963L388.456 446.597L373.852 510.217C368.515 533.467 336.263 535.337 328.141 513.151L327.954 512.622L306.781 450.878C302.318 437.864 288.482 430.646 275.307 434.338L274.679 434.522L212.282 453.684C189.478 460.687 171.733 433.691 186.885 415.565L187.25 415.138L230.135 365.928C239.174 355.556 238.507 339.966 228.722 330.401L228.249 329.951L180.455 285.494Z" stroke="white" stroke-width="2"/>
<path opacity="0.310345" d="M186.592 278.822C170 261.683 185.997 233.615 209.027 238.887L209.573 239.019L270.583 254.311C283.928 257.656 297.517 249.984 301.597 236.923L301.784 236.298L319.044 175.814C325.591 152.875 357.898 152.696 364.847 175.277L365.006 175.814L382.267 236.297C386.043 249.527 399.482 257.459 412.833 254.462L413.468 254.311L474.478 239.018C497.618 233.218 513.926 261.107 497.845 278.415L497.459 278.822L453.71 324.012C444.14 333.897 443.991 349.501 453.261 359.565L453.71 360.039L497.459 405.23C514.052 422.369 498.054 450.437 475.024 445.164L474.479 445.033L413.468 429.74C400.123 426.395 386.534 434.068 382.454 447.128L382.267 447.754L365.006 508.237C358.459 531.176 326.154 531.355 319.205 508.775L319.045 508.237L301.783 447.754C298.008 434.524 284.569 426.592 271.218 429.589L270.583 429.741L209.572 445.033C186.433 450.833 170.125 422.945 186.206 405.637L186.591 405.23L230.342 360.04C239.911 350.155 240.06 334.55 230.789 324.487L230.341 324.011L186.592 278.822Z" stroke="white" stroke-width="2"/>
<path opacity="0.344828" d="M192.977 272.633C177.304 254.649 194.748 227.457 217.471 233.928L218.009 234.087L275.864 251.854C289.016 255.893 302.987 248.942 307.745 236.113L307.964 235.499L327.596 178.249C335.334 155.684 367.606 157.196 373.364 180.11L373.494 180.654L387.035 239.642C390.113 253.052 403.119 261.676 416.608 259.382L417.25 259.264L476.646 247.642C500.057 243.061 514.884 271.765 497.919 288.208L497.512 288.594L453.197 329.814C443.123 339.184 442.157 354.759 450.888 365.294L451.312 365.791L491.075 411.418C506.747 429.402 489.303 456.594 466.58 450.124L466.042 449.964L408.187 432.197C395.035 428.158 381.064 435.109 376.306 447.939L376.087 448.553L356.455 505.803C348.717 528.368 316.445 526.856 310.687 503.942L310.557 503.397L297.016 444.409C293.938 431 280.932 422.376 267.443 424.67L266.801 424.787L207.405 436.41C183.994 440.991 169.167 412.287 186.132 395.844L186.539 395.458L230.854 354.238C240.928 344.867 241.894 329.292 233.163 318.757L232.74 318.26L192.977 272.633Z" stroke="white" stroke-width="2"/>
<path opacity="0.37931" d="M199.575 266.935C184.865 248.155 203.708 221.913 226.061 229.564L226.59 229.752L281.204 249.707C294.127 254.429 308.443 248.219 313.866 235.656L314.117 235.053L335.831 181.114C344.739 158.985 376.888 162.184 381.438 185.368L381.54 185.919L391.566 243.193C393.938 256.746 406.474 266.039 420.065 264.454L420.713 264.37L478.282 256.205C501.9 252.856 515.205 282.296 497.402 297.829L496.976 298.193L452.387 335.512C441.836 344.342 440.056 359.847 448.225 370.824L448.621 371.343L484.477 417.117C499.187 435.897 480.343 462.139 457.99 454.487L457.462 454.301L402.848 434.345C389.925 429.623 375.609 435.834 370.186 448.396L369.934 448.999L348.22 502.937C339.312 525.067 307.164 521.869 302.613 498.685L302.51 498.134L292.486 440.859C290.114 427.306 277.577 418.014 263.987 419.599L263.339 419.682L205.769 427.847C182.15 431.196 168.846 401.756 186.648 386.223L187.075 385.859L231.664 348.54C242.214 339.709 243.994 324.206 235.826 313.229L235.43 312.709L199.575 266.935Z" stroke="white" stroke-width="2"/>
<path opacity="0.413793" d="M206.353 261.732C192.646 242.208 212.838 216.988 234.759 225.798L235.278 226.013L286.586 247.868C299.244 253.259 313.866 247.807 319.938 235.546L320.221 234.956L343.727 184.383C353.781 162.75 385.718 167.627 389.049 191.017L389.122 191.573L395.849 246.935C397.509 260.593 409.542 270.529 423.197 269.657L423.848 269.608L479.399 264.678C503.161 262.569 514.906 292.666 496.315 307.245L495.87 307.586L451.289 341.093C440.291 349.359 437.702 364.748 445.284 376.138L445.653 376.677L477.698 422.321C491.405 441.844 471.214 467.064 449.292 458.254L448.773 458.04L397.465 436.185C384.807 430.793 370.185 436.245 364.113 448.507L363.831 449.095L340.324 499.67C330.27 521.302 298.334 516.425 295.003 493.036L294.929 492.48L288.202 437.117C286.543 423.46 274.51 413.523 260.855 414.395L260.203 414.444L204.652 419.374C180.89 421.483 169.145 391.387 187.736 376.807L188.181 376.466L232.763 342.958C243.761 334.692 246.35 319.304 238.767 307.914L238.398 307.375L206.353 261.732Z" stroke="white" stroke-width="2"/>
<path opacity="0.448276" d="M213.279 257.025C200.612 236.811 222.096 212.683 243.526 222.628L244.033 222.869L291.993 246.336C304.352 252.383 319.238 247.702 325.944 235.776L326.258 235.203L351.265 188.027C362.438 166.951 394.075 173.492 396.177 197.024L396.222 197.583L399.879 250.852C400.822 264.577 412.318 275.13 426 274.974L426.653 274.959L480.012 273.029C503.852 272.166 514.005 302.836 494.677 316.423L494.215 316.74L449.912 346.542C438.497 354.221 435.106 369.453 442.082 381.224L442.422 381.782L470.773 427.027C483.44 447.241 461.955 471.37 440.525 461.425L440.019 461.183L392.058 437.716C379.7 431.669 364.813 436.349 358.107 448.276L357.794 448.849L332.787 496.025C321.614 517.101 289.975 510.56 287.873 487.028L287.83 486.469L284.171 433.201C283.229 419.475 271.733 408.923 258.052 409.078L257.398 409.094L204.04 411.023C180.2 411.886 170.046 381.217 189.374 367.63L189.837 367.312L234.139 337.51C245.555 329.831 248.945 314.599 241.97 302.828L241.63 302.27L213.279 257.025Z" stroke="white" stroke-width="2"/>
<path opacity="0.482759" d="M220.318 252.818C208.727 231.968 231.444 208.998 252.324 220.051L252.817 220.319L297.407 245.108C309.432 251.793 324.544 247.899 331.865 236.34L332.207 235.783L358.428 192.02C370.689 171.557 401.94 179.745 402.808 203.355L402.824 203.916L403.65 254.926C403.873 268.683 414.801 279.823 428.472 280.383L429.125 280.401L480.136 281.228C503.988 281.614 512.523 312.774 492.509 325.33L492.032 325.623L448.268 351.844C436.466 358.915 432.283 373.949 438.633 386.069L438.943 386.644L463.733 431.235C475.324 452.084 452.607 475.055 431.727 464.001L431.234 463.734L386.644 438.944C374.619 432.259 359.508 436.153 352.187 447.713L351.844 448.268L325.623 492.032C313.362 512.495 282.11 504.307 281.243 480.697L281.227 480.136L280.402 429.125C280.178 415.369 269.25 404.229 255.579 403.668L254.926 403.65L203.915 402.824C180.063 402.438 171.529 371.278 191.542 358.722L192.019 358.429L235.783 332.207C247.585 325.136 251.768 310.102 245.418 297.982L245.108 297.408L220.318 252.818Z" stroke="white" stroke-width="2"/>
<path opacity="0.517241" d="M227.439 249.108C216.954 227.68 240.842 205.93 261.116 218.061L261.594 218.354L302.812 244.181C314.47 251.487 329.765 248.389 337.681 237.228L338.052 236.691L365.202 196.331C378.516 176.538 409.297 186.351 408.928 209.974L408.913 210.534L407.155 259.144C406.658 272.893 416.988 284.589 430.611 285.865L431.262 285.917L479.789 289.25C503.588 290.884 510.48 322.447 489.838 333.939L489.345 334.206L446.369 356.989C434.213 363.432 429.249 378.226 434.956 390.662L435.236 391.253L456.613 434.944C467.097 456.372 443.209 478.122 422.936 465.992L422.457 465.698L381.24 439.871C369.581 432.565 354.287 435.663 346.371 446.824L345.999 447.362L318.85 487.721C305.535 507.514 274.755 497.702 275.124 474.079L275.138 473.518L276.897 424.908C277.394 411.159 267.064 399.463 253.44 398.188L252.79 398.135L204.263 394.803C180.464 393.169 173.571 361.605 194.214 350.113L194.707 349.846L237.683 327.064C249.839 320.62 254.803 305.826 249.096 293.39L248.816 292.799L227.439 249.108Z" stroke="white" stroke-width="2"/>
<path opacity="0.551724" d="M234.607 245.892C225.258 223.945 250.253 203.474 269.863 216.649L270.326 216.967L308.191 243.551C319.451 251.457 334.886 249.163 343.375 238.432L343.775 237.915L371.572 200.931C385.904 181.862 416.128 193.272 414.524 216.843L414.48 217.402L410.39 263.487C409.174 277.191 418.877 289.411 432.415 291.398L433.063 291.485L478.99 297.066C502.671 299.943 507.902 331.824 486.686 342.22L486.18 342.461L444.225 361.961C431.749 367.76 426.017 382.274 431.066 394.991L431.314 395.596L449.445 438.161C458.793 460.107 433.799 480.577 414.188 467.402L413.726 467.085L375.861 440.501C364.601 432.595 349.165 434.888 340.675 445.619L340.277 446.136L312.481 483.12C298.148 502.19 267.923 490.78 269.527 467.208L269.572 466.65L273.662 420.565C274.878 406.861 265.174 394.64 251.636 392.654L250.989 392.567L205.061 386.986C181.38 384.109 176.15 352.228 197.365 341.832L197.872 341.59L239.827 322.09C252.303 316.292 258.035 301.777 252.987 289.06L252.738 288.456L234.607 245.892Z" stroke="white" stroke-width="2"/>
<path opacity="0.586207" d="M241.792 243.164C233.605 220.758 259.637 201.623 278.531 215.806L278.976 216.148L313.527 243.213C324.358 251.697 339.893 250.214 348.932 239.943L349.357 239.447L377.527 205.79C392.838 187.497 422.423 200.473 419.587 223.928L419.514 224.485L413.351 267.938C411.42 281.56 420.47 294.272 433.885 296.965L434.528 297.086L477.76 304.652C501.258 308.765 504.813 340.876 483.082 350.147L482.564 350.362L441.85 366.752C429.087 371.89 422.604 386.084 426.98 399.048L427.196 399.665L442.259 440.888C450.446 463.294 424.415 482.429 405.52 468.246L405.075 467.904L370.525 440.839C359.694 432.355 344.159 433.838 335.12 444.109L334.694 444.606L306.525 478.262C291.214 496.555 261.628 483.579 264.464 460.124L264.537 459.568L270.7 416.114C272.632 402.492 263.581 389.78 250.166 387.087L249.523 386.966L206.292 379.4C182.794 375.287 179.239 343.176 200.97 333.905L201.487 333.69L242.201 317.3C254.964 312.162 261.447 297.968 257.072 285.004L256.855 284.387L241.792 243.164Z" stroke="white" stroke-width="2"/>
<path opacity="0.62069" d="M248.963 240.917C241.96 218.113 268.956 200.367 287.083 215.52L287.51 215.884L318.805 243.159C329.177 252.198 344.768 251.531 354.333 241.746L354.784 241.273L383.058 210.877C399.305 193.41 428.172 207.917 424.112 231.192L424.01 231.743L416.037 272.483C413.395 285.985 421.769 299.154 435.025 302.544L435.659 302.698L476.12 311.986C499.371 317.323 501.24 349.576 479.054 357.697L478.526 357.884L439.257 371.35C426.243 375.813 419.026 389.649 422.717 402.824L422.901 403.451L435.089 443.135C442.092 465.939 415.094 483.685 396.968 468.532L396.542 468.168L365.245 440.893C354.873 431.854 339.283 432.522 329.718 442.307L329.268 442.778L300.994 473.175C284.747 490.642 255.88 476.135 259.94 452.861L260.042 452.309L268.013 411.569C270.656 398.067 262.283 384.899 249.027 381.508L248.392 381.354L207.932 372.066C184.681 366.729 182.811 334.477 204.997 326.355L205.526 326.167L244.794 312.701C257.808 308.238 265.026 294.403 261.335 281.227L261.15 280.601L248.963 240.917Z" stroke="white" stroke-width="2"/>
<path opacity="0.655172" d="M256.09 239.141C250.289 216.002 278.178 199.694 295.486 215.775L295.893 216.161L324.011 243.383C333.896 252.952 349.501 253.102 359.564 243.831L360.039 243.383L388.158 216.16C405.297 199.568 433.365 215.566 428.092 238.596L427.962 239.141L418.446 277.104C415.101 290.449 422.773 304.038 435.834 308.118L436.459 308.305L474.094 319.045C497.033 325.592 497.213 357.899 474.632 364.847L474.094 365.007L436.46 375.747C423.23 379.523 415.298 392.962 418.295 406.312L418.446 406.948L427.961 444.91C433.761 468.049 405.873 484.358 388.565 468.277L388.158 467.891L360.04 440.669C350.155 431.099 334.55 430.95 324.487 440.22L324.012 440.669L295.893 467.891C278.754 484.484 250.686 468.485 255.958 445.455L256.089 444.911L265.605 406.947C268.95 393.602 261.278 380.014 248.217 375.934L247.592 375.747L209.957 365.006C187.018 358.46 186.838 326.153 209.419 319.204L209.956 319.045L247.591 308.305C260.822 304.529 268.753 291.09 265.756 277.739L265.605 277.103L256.09 239.141Z" stroke="white" stroke-width="2"/>
<path opacity="0.689655" d="M263.142 237.821C258.561 214.41 287.265 199.583 303.708 216.548L304.094 216.955L329.131 243.871C338.502 253.945 354.076 254.911 364.611 246.18L365.109 245.757L392.823 221.604C410.807 205.932 437.999 223.377 431.528 246.1L431.369 246.637L420.577 281.778C416.538 294.93 423.489 308.902 436.318 313.66L436.934 313.879L471.706 325.803C494.272 333.541 492.76 365.813 469.846 371.571L469.301 371.701L433.472 379.927C420.062 383.005 411.438 396.01 413.732 409.499L413.85 410.141L420.909 446.218C425.491 469.629 396.787 484.456 380.344 467.491L379.958 467.084L354.92 440.168C345.55 430.094 329.975 429.127 319.44 437.859L318.943 438.282L291.229 462.434C273.245 478.107 246.053 460.662 252.524 437.939L252.682 437.401L263.474 402.261C267.513 389.109 260.562 375.137 247.733 370.38L247.118 370.16L212.345 358.235C189.78 350.497 191.292 318.225 214.205 312.468L214.75 312.337L250.58 304.112C263.989 301.034 272.613 288.029 270.319 274.54L270.201 273.898L263.142 237.821Z" stroke="white" stroke-width="2"/>
<path opacity="0.724138" d="M270.092 236.954C266.742 213.336 296.183 200.031 311.716 217.833L312.08 218.26L334.149 244.628C342.98 255.178 358.482 256.958 369.46 248.791L369.979 248.394L397.048 227.19C415.828 212.48 442.07 231.325 434.419 253.678L434.232 254.206L422.431 286.502C417.709 299.424 423.919 313.74 436.482 319.163L437.085 319.415L468.982 332.256C491.111 341.164 487.912 373.313 464.729 377.863L464.178 377.965L430.307 383.894C416.755 386.266 407.462 398.802 409.047 412.393L409.131 413.04L413.96 447.085C417.309 470.704 387.869 484.007 372.336 466.205L371.971 465.78L349.903 439.411C341.072 428.86 325.569 427.08 314.591 435.248L314.072 435.645L287.004 456.848C268.224 471.559 241.982 452.715 249.633 430.362L249.819 429.833L261.621 397.537C266.342 384.614 260.132 370.298 247.569 364.876L246.966 364.624L215.069 351.783C192.94 342.874 196.139 310.726 219.322 306.176L219.874 306.073L253.744 300.145C267.296 297.773 276.589 285.237 275.004 271.646L274.921 270.998L270.092 236.954Z" stroke="white" stroke-width="2"/>
<path opacity="0.758621" d="M276.913 236.521C274.804 212.76 304.9 201.015 319.479 219.605L319.822 220.05L339.053 245.637C347.319 256.635 362.707 259.224 374.097 251.642L374.636 251.273L400.834 232.881C420.358 219.174 445.576 239.366 436.767 261.287L436.552 261.805L424.009 291.254C418.617 303.911 424.069 318.533 436.331 324.606L436.92 324.889L465.947 338.38C487.579 348.435 482.702 380.371 459.313 383.702L458.757 383.775L426.981 387.636C413.324 389.296 403.387 401.328 404.259 414.983L404.309 415.634L407.139 447.518C409.248 471.28 379.151 483.025 364.571 464.435L364.23 463.99L344.998 438.403C336.732 427.404 321.343 424.815 309.953 432.398L309.415 432.766L283.217 451.159C263.694 464.866 238.474 444.674 247.284 422.752L247.499 422.234L260.042 392.786C265.434 380.128 259.982 365.507 247.721 359.434L247.131 359.151L218.105 345.66C196.472 335.605 201.349 303.668 224.739 300.337L225.294 300.264L257.07 296.403C270.728 294.743 280.664 282.711 279.792 269.056L279.742 268.404L276.913 236.521Z" stroke="white" stroke-width="2"/>
<path opacity="0.793103" d="M283.579 236.505C282.716 212.666 313.386 202.512 326.973 221.84L327.29 222.302L343.83 246.89C351.51 258.305 366.741 261.695 378.512 254.72L379.07 254.38L404.181 238.645C424.395 225.979 448.523 247.463 438.578 268.893L438.337 269.4L425.313 296.017C419.266 308.375 423.946 323.262 435.873 329.968L436.446 330.281L462.628 344.16C483.705 355.332 477.163 386.97 453.631 389.073L453.072 389.117L423.509 391.148C409.783 392.09 399.23 403.586 399.386 417.268L399.402 417.921L400.473 447.535C401.335 471.374 370.665 481.527 357.079 462.199L356.761 461.737L340.222 437.15C332.543 425.734 317.31 422.343 305.539 429.319L304.981 429.659L279.871 445.393C259.657 458.06 235.528 436.576 245.473 415.146L245.714 414.639L258.739 388.021C264.785 375.663 260.106 360.776 248.179 354.07L247.606 353.757L221.423 339.879C200.347 328.706 206.889 297.069 230.42 294.966L230.98 294.922L260.543 292.892C274.269 291.95 284.821 280.453 284.666 266.772L284.65 266.118L283.579 236.505Z" stroke="white" stroke-width="2"/>
<path opacity="0.827586" d="M290.065 236.889C290.451 213.037 321.61 204.502 334.167 224.515L334.46 224.993L348.469 248.374C355.54 260.176 370.574 264.36 382.694 258.009L383.268 257.699L407.092 244.455C427.941 232.864 450.911 255.58 439.858 276.461L439.591 276.954L426.347 300.777C419.661 312.802 423.556 327.913 435.115 335.234L435.671 335.577L459.053 349.585C479.516 361.846 471.327 393.098 447.717 393.966L447.157 393.981L419.903 394.423C406.147 394.646 395.007 405.573 394.447 419.245L394.429 419.898L393.987 447.151C393.6 471.002 362.441 479.537 349.885 459.525L349.592 459.046L335.583 435.665C328.511 423.863 313.477 419.68 301.357 426.03L300.783 426.341L276.96 439.585C256.11 451.176 233.14 428.459 244.193 407.578L244.46 407.085L257.705 383.263C264.39 371.238 260.496 356.126 248.936 348.805L248.38 348.463L224.999 334.454C204.536 322.193 212.724 290.941 236.334 290.073L236.894 290.059L264.148 289.617C277.904 289.394 289.044 278.466 289.605 264.795L289.623 264.142L290.065 236.889Z" stroke="white" stroke-width="2"/>
<path opacity="0.862069" d="M296.348 237.653C297.982 213.854 329.545 206.962 341.037 227.604L341.305 228.097L352.958 250.08C359.402 262.236 374.196 267.2 386.632 261.493L387.222 261.213L409.571 250.278C430.999 239.794 452.749 263.682 440.618 283.956L440.325 284.434L427.114 305.518C419.809 317.176 422.906 332.471 434.067 340.387L434.605 340.758L455.249 354.645C475.042 367.96 465.229 398.74 441.607 398.372L441.046 398.357L416.181 397.457C402.432 396.96 390.736 407.29 389.46 420.913L389.408 421.564L387.704 446.387C386.069 470.186 354.506 477.078 343.014 456.435L342.747 455.943L331.094 433.959C324.65 421.803 309.855 416.84 297.42 422.547L296.829 422.826L274.481 433.762C253.053 444.246 231.302 420.357 243.434 400.083L243.727 399.606L256.937 378.522C264.243 366.864 261.145 351.569 249.984 343.653L249.447 343.282L228.803 329.395C209.009 316.08 218.822 285.299 242.445 285.668L243.005 285.683L267.869 286.582C281.619 287.079 293.315 276.75 294.59 263.126L294.644 262.475L296.348 237.653Z" stroke="white" stroke-width="2"/>
<path opacity="0.896552" d="M302.406 238.778C305.284 215.097 337.165 209.866 347.561 231.081L347.802 231.588L357.287 251.996C363.086 264.472 377.601 270.203 390.318 265.155L390.922 264.907L411.627 256.088C433.574 246.74 454.044 271.733 440.868 291.344L440.551 291.806L427.62 310.224C419.714 321.484 422.008 336.92 432.739 345.409L433.256 345.809L451.246 359.329C470.315 373.661 458.905 403.886 435.333 402.282L434.775 402.238L412.358 400.248C398.654 399.032 386.432 408.736 384.446 422.274L384.359 422.922L381.645 445.261C378.767 468.942 346.887 474.173 336.491 452.958L336.249 452.451L326.764 432.044C320.965 419.568 306.451 413.835 293.733 418.884L293.13 419.132L272.424 427.951C250.478 437.299 230.008 412.306 243.183 392.695L243.5 392.233L256.432 373.815C264.337 362.555 262.044 347.119 251.314 338.63L250.795 338.23L232.806 324.71C213.736 310.378 225.147 280.153 248.718 281.757L249.277 281.801L271.694 283.791C285.398 285.007 297.619 275.303 299.606 261.766L299.692 261.118L302.406 238.778Z" stroke="white" stroke-width="2"/>
<path opacity="0.931035" d="M308.221 240.242C312.334 216.744 344.444 213.188 353.716 234.919L353.931 235.437L361.447 254.109C366.585 266.872 380.78 273.356 393.744 268.98L394.361 268.763L413.267 261.855C435.673 253.669 454.806 279.699 440.623 298.594L440.282 299.039L427.869 314.884C419.385 325.715 420.868 341.249 431.14 350.289L431.635 350.714L447.071 363.633C465.364 378.944 452.387 408.53 428.933 405.694L428.377 405.621L408.448 402.795C394.826 400.863 382.114 409.914 379.422 423.329L379.301 423.972L375.831 443.798C371.718 467.296 339.606 470.851 330.335 449.12L330.121 448.603L322.604 429.931C317.466 417.168 303.272 410.684 290.307 415.06L289.691 415.277L270.785 422.185C248.379 430.372 229.245 404.341 243.429 385.446L243.77 385.001L256.181 369.155C264.665 358.324 263.184 342.79 252.912 333.751L252.416 333.325L236.981 320.407C218.687 305.096 231.664 275.509 255.119 278.346L255.675 278.419L275.604 281.245C289.226 283.177 301.937 274.126 304.63 260.71L304.751 260.068L308.221 240.242Z" stroke="white" stroke-width="2"/>
<path opacity="0.965517" d="M313.773 242.022C319.11 218.771 351.362 216.901 359.484 239.087L359.671 239.616L365.43 256.408C369.893 269.422 383.728 276.64 396.904 272.949L397.531 272.764L414.501 267.552C437.305 260.55 455.05 287.547 439.897 305.673L439.533 306.099L427.87 319.482C418.831 329.855 419.497 345.445 429.282 355.01L429.755 355.46L442.754 367.552C460.22 383.799 445.713 412.665 422.439 408.606L421.888 408.503L404.466 405.094C390.964 402.452 377.796 410.825 374.405 424.081L374.25 424.716L370.278 442.019C364.941 465.269 332.689 467.139 324.567 444.952L324.38 444.424L318.622 427.632C314.159 414.617 300.323 407.399 287.147 411.091L286.521 411.275L269.551 416.487C246.747 423.49 229.001 396.493 244.154 378.367L244.518 377.941L256.182 364.557C265.221 354.185 264.554 338.594 254.769 329.03L254.297 328.579L241.297 316.488C223.831 300.241 238.338 271.375 261.612 275.434L262.164 275.536L279.586 278.945C293.088 281.587 306.257 273.214 309.647 259.958L309.801 259.323L313.773 242.022Z" stroke="white" stroke-width="2"/>
<path d="M319.045 244.094C325.592 221.155 357.898 220.975 364.847 243.556L365.006 244.094L369.226 258.879C373.002 272.109 386.441 280.041 399.791 277.044L400.427 276.894L415.341 273.155C438.48 267.354 454.79 295.244 438.708 312.552L438.323 312.958L427.627 324.006C418.058 333.891 417.908 349.495 427.179 359.559L427.627 360.033L438.323 371.08C454.915 388.219 438.917 416.287 415.887 411.015L415.341 410.884L400.427 407.146C387.082 403.801 373.494 411.473 369.413 424.533L369.226 425.159L365.006 439.946C358.46 462.885 326.154 463.064 319.204 440.484L319.045 439.946L314.826 425.159C311.05 411.93 297.611 403.999 284.26 406.995L283.624 407.146L268.709 410.884C245.57 416.684 229.262 388.796 245.343 371.488L245.729 371.08L256.424 360.033C265.994 350.149 266.143 334.544 256.872 324.481L256.424 324.006L245.729 312.958C229.137 295.819 245.135 267.751 268.164 273.024L268.709 273.155L283.624 276.894C296.97 280.239 310.558 272.566 314.638 259.505L314.826 258.879L319.045 244.094Z" stroke="white" stroke-width="2"/>
</svg>
