<svg width="70" height="70" viewBox="0 0 70 70" fill="none" xmlns="http://www.w3.org/2000/svg">
<rect width="70" height="70" rx="5" fill="#2E5283"/>
<path d="M35 18C37.2543 18 39.4163 18.8955 41.0104 20.4896C42.6045 22.0837 43.5 24.2457 43.5 26.5C43.5 28.7543 42.6045 30.9163 41.0104 32.5104C39.4163 34.1045 37.2543 35 35 35C32.7457 35 30.5837 34.1045 28.9896 32.5104C27.3955 30.9163 26.5 28.7543 26.5 26.5C26.5 24.2457 27.3955 22.0837 28.9896 20.4896C30.5837 18.8955 32.7457 18 35 18ZM35 39.25C44.3925 39.25 52 43.0537 52 47.75V52H18V47.75C18 43.0537 25.6075 39.25 35 39.25Z" fill="white"/>
</svg>
