<svg width="70" height="70" viewBox="0 0 70 70" fill="none" xmlns="http://www.w3.org/2000/svg">
<rect width="70" height="70" rx="5" fill="#2E5283"/>
<path d="M48.4191 17.5C48.2576 17.5 48.0919 17.5297 47.9262 17.5977L23.4322 27.4395H16.4631C16.0892 27.4395 15.7832 27.754 15.7832 28.1449V40.8508C15.7832 41.2418 16.0892 41.5562 16.4631 41.5562H20.7806C20.6233 42.0492 20.5426 42.5719 20.5426 43.1031C20.5426 45.9035 22.8288 48.1812 25.642 48.1812C27.9962 48.1812 29.9807 46.5834 30.5671 44.4246L47.9304 51.4023C48.0962 51.466 48.2619 51.5 48.4234 51.5C49.1415 51.5 49.7832 50.8966 49.7832 50.0892V18.9108C49.779 18.1034 49.1415 17.5 48.4191 17.5ZM25.642 45.1343C24.5159 45.1343 23.6022 44.2249 23.6022 43.1031C23.6022 42.6271 23.768 42.1724 24.0697 41.8112L27.6775 43.2603C27.5925 44.3057 26.7128 45.1343 25.642 45.1343Z" fill="white"/>
</svg>
