<svg width="70" height="70" viewBox="0 0 70 70" fill="none" xmlns="http://www.w3.org/2000/svg">
<rect width="70" height="70" rx="5" fill="#2E5283"/>
<path fill-rule="evenodd" clip-rule="evenodd" d="M12.8809 35C17.0273 25.5097 25.541 19 35.3715 19C45.202 19 53.7157 25.5097 57.8621 35C53.7157 44.4903 45.202 51 35.3715 51C25.541 51 17.0273 44.4903 12.8809 35ZM35.3715 43C36.3113 43 37.2418 42.7931 38.11 42.391C38.9782 41.989 39.7671 41.3997 40.4316 40.6569C41.0961 39.914 41.6233 39.0321 41.9829 38.0615C42.3425 37.0909 42.5276 36.0506 42.5276 35C42.5276 33.9494 42.3425 32.9091 41.9829 31.9385C41.6233 30.9679 41.0961 30.086 40.4316 29.3431C39.7671 28.6003 38.9782 28.011 38.11 27.609C37.2418 27.2069 36.3113 27 35.3715 27C33.4736 27 31.6534 27.8429 30.3114 29.3431C28.9693 30.8434 28.2154 32.8783 28.2154 35C28.2154 37.1217 28.9693 39.1566 30.3114 40.6569C31.6534 42.1571 33.4736 43 35.3715 43Z" fill="white"/>
</svg>
