<svg width="70" height="70" viewBox="0 0 70 70" fill="none" xmlns="http://www.w3.org/2000/svg">
<rect width="70" height="70" rx="5" fill="#2E5283"/>
<path fill-rule="evenodd" clip-rule="evenodd" d="M16 35C16 24.5063 24.5063 16 35 16C45.4937 16 54 24.5063 54 35C54 45.4937 45.4937 54 35 54C24.5063 54 16 45.4937 16 35ZM35 27.4C35 26.8961 34.7998 26.4128 34.4435 26.0565C34.0872 25.7002 33.6039 25.5 33.1 25.5C32.5961 25.5 32.1128 25.7002 31.7565 26.0565C31.4002 26.4128 31.2 26.8961 31.2 27.4V36.9C31.2 37.4039 31.4002 37.8872 31.7565 38.2435C32.1128 38.5998 32.5961 38.8 33.1 38.8H42.6C43.1039 38.8 43.5872 38.5998 43.9435 38.2435C44.2998 37.8872 44.5 37.4039 44.5 36.9C44.5 36.3961 44.2998 35.9128 43.9435 35.5565C43.5872 35.2002 43.1039 35 42.6 35H35V27.4Z" fill="white"/>
</svg>
