<svg width="49" height="47" viewBox="0 0 49 47" fill="none" xmlns="http://www.w3.org/2000/svg">
<path d="M1.66504 24.675H14.9325C18.4324 24.675 20.8343 27.5751 20.8343 31.1251V39.1751C20.8343 42.7251 18.4324 45.6251 14.9325 45.6251H7.56684C4.31858 45.6251 1.66504 42.7251 1.66504 39.1751V24.675Z" stroke="#2E5283" stroke-width="2.75" stroke-linecap="round" stroke-linejoin="round"/>
<path d="M1.66504 24.6749C1.66504 9.54987 4.24998 7.05 12.0275 2" stroke="#2E5283" stroke-width="2.75" stroke-linecap="round" stroke-linejoin="round"/>
<path d="M28.2686 24.675H41.5361C45.0359 24.675 47.4378 27.5751 47.4378 31.1251V39.1751C47.4378 42.7251 45.0359 45.6251 41.5361 45.6251H34.1703C30.9221 45.6251 28.2686 42.7251 28.2686 39.1751V24.675Z" stroke="#2E5283" stroke-width="2.75" stroke-linecap="round" stroke-linejoin="round"/>
<path d="M28.2686 24.6749C28.2686 9.54987 30.8534 7.05 38.6309 2" stroke="#2E5283" stroke-width="2.75" stroke-linecap="round" stroke-linejoin="round"/>
</svg>
