<svg width="70" height="70" viewBox="0 0 70 70" fill="none" xmlns="http://www.w3.org/2000/svg">
<rect width="70" height="70" rx="5" fill="#2E5283"/>
<path fill-rule="evenodd" clip-rule="evenodd" d="M17.8696 23.48V25.8H15.5217C14.5877 25.8 13.6919 26.1666 13.0315 26.8193C12.371 27.4719 12 28.357 12 29.28V45.52C12 46.443 12.371 47.3281 13.0315 47.9807C13.6919 48.6334 14.5877 49 15.5217 49H47.6087C48.0712 49 48.5291 48.91 48.9564 48.7351C49.3837 48.5602 49.7719 48.3039 50.0989 47.9807C50.426 47.6576 50.6854 47.274 50.8624 46.8517C51.0393 46.4295 51.1304 45.977 51.1304 45.52V43.2H53.4783C55.4191 43.2 57 41.6379 57 39.72V23.48C57 21.5621 55.4191 20 53.4783 20H21.3913C19.4504 20 17.8696 21.5621 17.8696 23.48ZM21.7826 23.8667V25.8H47.6087C48.0712 25.8 48.5291 25.89 48.9564 26.0649C49.3837 26.2398 49.7719 26.4961 50.0989 26.8193C50.426 27.1424 50.6854 27.526 50.8624 27.9483C51.0393 28.3705 51.1304 28.823 51.1304 29.28V39.3333H53.087V23.8667H21.7826ZM27.6522 37.4C27.6522 36.3745 28.0644 35.391 28.7983 34.6659C29.5321 33.9407 30.5274 33.5333 31.5652 33.5333C32.603 33.5333 33.5983 33.9407 34.3322 34.6659C35.066 35.391 35.4783 36.3745 35.4783 37.4C35.4783 38.4255 35.066 39.409 34.3322 40.1341C33.5983 40.8593 32.603 41.2667 31.5652 41.2667C30.5274 41.2667 29.5321 40.8593 28.7983 40.1341C28.0644 39.409 27.6522 38.4255 27.6522 37.4Z" fill="white"/>
</svg>
