<svg width="13" height="13" viewBox="0 0 13 13" fill="none" xmlns="http://www.w3.org/2000/svg">
<path fill-rule="evenodd" clip-rule="evenodd" d="M11.4895 2.39056C11.4895 2.07513 11.2207 1.81913 10.8895 1.81913H2.48945C2.15825 1.81913 1.88945 2.07513 1.88945 2.39056V10.3906C1.88945 10.706 2.15825 10.962 2.48945 10.962H10.8895C11.2207 10.962 11.4895 10.706 11.4895 10.3906V2.39056ZM12.6895 1.81913V10.962C12.6895 11.5934 12.1525 12.1048 11.4895 12.1048H1.88945C1.22645 12.1048 0.689453 11.5934 0.689453 10.962V1.81913C0.689453 1.1877 1.22645 0.67627 1.88945 0.67627H11.4895C12.1525 0.67627 12.6895 1.1877 12.6895 1.81913ZM9.10205 4.68484C9.33665 4.9077 9.33665 5.26999 9.10205 5.49284L6.76925 7.71456C6.41705 8.04941 5.84706 8.04941 5.49486 7.71456L4.43465 6.70484C4.20065 6.48199 4.20065 6.12027 4.43465 5.89684C4.66925 5.67399 5.04906 5.67399 5.28306 5.89684L5.70666 6.30027C5.94126 6.5237 6.32225 6.5237 6.55745 6.30027L8.25365 4.68484C8.48765 4.46141 8.86805 4.46141 9.10205 4.68484Z" fill="white"/>
</svg>
