<svg width="15" height="15" viewBox="0 0 15 15" fill="none" xmlns="http://www.w3.org/2000/svg">
<path d="M5.54466 9.35551C4.91306 10.3565 4.59726 10.857 4.81242 11.2664C5.02757 11.6757 5.6312 11.7228 6.83842 11.8171L7.15079 11.8415C7.49381 11.8683 7.66539 11.8817 7.81531 11.9605C7.9653 12.0393 8.07673 12.1746 8.29953 12.4452L8.50235 12.6916C9.28648 13.644 9.67851 14.1202 10.1257 14.059C10.5729 13.9977 10.7792 13.4396 11.1915 12.3234L11.2983 12.0346C11.4154 11.7175 11.474 11.5588 11.5891 11.4437C11.7042 11.3287 11.8628 11.2701 12.18 11.1529L12.4688 11.0462C13.585 10.6338 14.1431 10.4276 14.2043 9.98039C14.2656 9.53318 13.7894 9.14109 12.837 8.35703M11.9625 6.69309C11.8682 5.48582 11.8211 4.88219 11.4117 4.66703C11.0024 4.45187 10.5019 4.76768 9.5009 5.39928L9.24189 5.56268C8.95747 5.74216 8.81527 5.83191 8.6514 5.85434C8.4876 5.87677 8.32072 5.82935 7.98695 5.73451L7.68316 5.64817C6.50867 5.31444 5.92143 5.14758 5.6072 5.46181C5.29296 5.77605 5.45983 6.36328 5.79356 7.53776" stroke="white" stroke-linecap="round"/>
<path d="M9.01689 3.9962L8.68165 3.66095M6.33496 1.31427L7.67592 2.65523" stroke="white" stroke-linecap="round"/>
<path d="M4.32318 3.99621L2.64697 2.32001" stroke="white" stroke-linecap="round"/>
<path d="M3.98808 7.68382L2.98236 6.6781M1.30615 5.00189L1.64139 5.33713" stroke="white" stroke-linecap="round"/>
</svg>
