<svg width="13" height="12" viewBox="0 0 13 12" fill="none" xmlns="http://www.w3.org/2000/svg">
<path d="M11.5637 2.47303H9.21143V1.45371C9.21379 1.32457 9.17053 1.19873 9.08926 1.09833C9.00799 0.997941 8.89391 0.929426 8.76711 0.904845C8.69219 0.893474 8.61569 0.898527 8.54292 0.919654C8.47015 0.940781 8.40284 0.977477 8.34566 1.0272C8.28848 1.07692 8.24279 1.13848 8.21177 1.20762C8.18074 1.27675 8.16511 1.3518 8.16597 1.42757V2.47303H4.50688V1.45371C4.50924 1.32457 4.46598 1.19873 4.38471 1.09833C4.30344 0.997941 4.18937 0.929426 4.06256 0.904845C3.98764 0.893474 3.91115 0.898527 3.83838 0.919654C3.76561 0.940781 3.6983 0.977477 3.64112 1.0272C3.58394 1.07692 3.53825 1.13848 3.50722 1.20762C3.47619 1.27675 3.46057 1.3518 3.46143 1.42757V2.47303H1.10915C0.970517 2.47303 0.837559 2.5281 0.739529 2.62613C0.641499 2.72416 0.586426 2.85712 0.586426 2.99575V11.3594C0.586426 11.498 0.641499 11.631 0.739529 11.729C0.837559 11.827 0.970517 11.8821 1.10915 11.8821H11.5637C11.7023 11.8821 11.8353 11.827 11.9333 11.729C12.0314 11.631 12.0864 11.498 12.0864 11.3594V2.99575C12.0864 2.85712 12.0314 2.72416 11.9333 2.62613C11.8353 2.5281 11.7023 2.47303 11.5637 2.47303ZM11.041 10.8367H1.63188V5.60939H11.041V10.8367ZM11.041 4.56394H1.63188V3.51848H11.041V4.56394Z" fill="white"/>
</svg>
