<svg width="31" height="20" viewBox="0 0 31 20" fill="none" xmlns="http://www.w3.org/2000/svg">
<path fill-rule="evenodd" clip-rule="evenodd" d="M0.252502 10.1244C0.252502 9.8441 0.365455 9.57527 0.566512 9.37706C0.767569 9.17885 1.04026 9.0675 1.3246 9.0675H26.6111L19.8633 2.41739C19.662 2.21893 19.5489 1.94976 19.5489 1.66909C19.5489 1.38842 19.662 1.11925 19.8633 0.920794C20.0646 0.722333 20.3376 0.61084 20.6223 0.61084C20.907 0.61084 21.1801 0.722334 21.3814 0.920794L29.9581 9.37611C30.058 9.47429 30.1372 9.59093 30.1912 9.71933C30.2453 9.84774 30.2731 9.98539 30.2731 10.1244C30.2731 10.2634 30.2453 10.4011 30.1912 10.5295C30.1372 10.6579 30.058 10.7745 29.9581 10.8727L21.3814 19.328C21.1801 19.5265 20.907 19.638 20.6223 19.638C20.3376 19.638 20.0646 19.5265 19.8633 19.328C19.662 19.1296 19.5489 18.8604 19.5489 18.5797C19.5489 18.2991 19.662 18.0299 19.8633 17.8314L26.6111 11.1813H1.3246C1.04026 11.1813 0.767569 11.07 0.566512 10.8718C0.365455 10.6736 0.252502 10.4047 0.252502 10.1244Z" fill="#1E1E1E"/>
</svg>
