<svg width="65" height="76" viewBox="0 0 65 76" fill="none" xmlns="http://www.w3.org/2000/svg">
<path d="M18.749 64.7031C18.749 65.931 17.7587 66.956 16.5698 66.956C15.3836 66.956 14.3907 65.931 14.3907 64.7031C14.3907 63.4752 15.381 62.4475 16.5698 62.4475C17.7561 62.4475 18.749 63.4725 18.749 64.7031ZM25.7687 20.7011C25.779 23.8776 25.8331 27.0542 25.7042 30.2334C25.5288 34.4056 25.5701 38.5939 25.6681 42.7715C25.7171 44.8136 25.7738 46.8503 25.7635 48.8924C25.7583 49.9227 25.7583 50.9505 25.7635 51.9808C25.7635 53.0913 25.8228 54.1937 25.6732 55.2935C25.6036 55.8061 25.142 56.3212 24.732 56.5695C24.2574 56.8551 23.6746 56.9325 23.1434 56.783C22.8391 56.6976 22.5709 56.5161 22.3362 56.2972C21.5599 56.2705 20.7786 56.2946 20.0049 56.2999C18.9991 56.2999 17.9882 56.2839 16.9799 56.2652C15.8735 56.2492 14.7672 56.2332 13.6609 56.2705C12.4694 56.2999 11.2832 56.3479 10.0969 56.3533C9.76163 56.3533 9.45217 56.2518 9.16592 56.105C8.30715 55.8114 7.64181 54.9919 7.65986 54.0149C7.68049 52.8484 7.77075 51.6819 7.78106 50.5127C7.79138 49.1193 7.79654 47.7178 7.79654 46.3244C7.79138 43.4789 7.80685 40.6386 7.82748 37.7931C7.85327 33.5541 7.73207 29.3125 7.67275 25.0682C7.63923 22.9086 7.62375 20.7464 7.62375 18.5842C7.62375 17.5378 7.63923 16.4861 7.60828 15.4397C7.57991 14.4307 7.50513 13.4297 7.43034 12.426C7.25498 12.0977 7.12603 11.7453 7.12603 11.3582C7.12603 10.125 8.11632 9.10795 9.30517 9.10261C10.6823 9.09727 12.0594 9.09193 13.4417 9.10261C13.9626 9.10795 14.4835 9.10261 15.0045 9.10261C15.595 9.09727 16.1804 9.09193 16.771 9.09727C17.8464 9.10795 18.9295 9.15333 20.0049 9.15333C21.0674 9.14799 22.1118 9.07592 23.1743 8.98249C23.2207 8.97982 23.2646 8.97715 23.311 8.97715C23.4038 8.97715 23.4838 9.02787 23.574 9.04388C23.6282 9.03855 23.6798 9.00918 23.7339 9.00918C24.8609 9.00918 25.7326 9.96215 25.7609 11.102C25.8434 14.2999 25.7635 17.5031 25.7687 20.7011ZM21.7069 50.163C21.7018 48.6895 21.6708 47.2133 21.6322 45.7425C21.5986 44.3571 21.5986 42.9744 21.6064 41.5916C21.5264 41.5836 21.4516 41.5916 21.3691 41.5783C21.364 41.5783 21.3562 41.5756 21.3511 41.5756C20.5465 41.4982 19.7367 41.5142 18.9269 41.5009C18.045 41.4848 17.1681 41.4581 16.2887 41.4528C14.8059 41.4368 13.3282 41.5302 11.8479 41.5996C11.8505 42.2269 11.8531 42.8569 11.8583 43.4869C11.8737 45.3367 11.8583 47.192 11.8428 49.0418C11.8376 49.9895 11.8325 50.9451 11.8634 51.8874C11.8634 51.9141 11.866 51.9381 11.866 51.9648C12.5236 51.9755 13.1786 51.9835 13.8362 51.9915C14.8833 52.0022 15.9303 51.9648 16.9799 51.9488C17.7355 51.9408 18.4885 51.9248 19.2415 51.9248C19.5226 51.9248 19.8037 51.9274 20.0848 51.9328C20.3891 51.9381 20.7012 51.9381 21.0106 51.9381C21.2427 51.9381 21.4748 51.9541 21.7069 51.9541C21.7069 51.3589 21.7069 50.7636 21.7069 50.163ZM21.8643 27.1796C20.139 27.0942 18.4189 26.9581 16.691 26.9127C15.038 26.8673 13.3901 26.9127 11.7396 26.9527C11.7577 28.2447 11.768 29.5367 11.786 30.8313C11.8093 32.9909 11.8144 35.1477 11.8221 37.3046C13.4185 37.2832 15.0174 37.2779 16.6137 37.2165C17.5292 37.1845 18.4524 37.1498 19.3731 37.1391C19.8424 37.1284 20.3144 37.1231 20.7863 37.1177C20.8224 37.1177 20.8559 37.1177 20.892 37.1177C21.1448 37.1177 21.3923 37.1658 21.6399 37.1925C21.6399 37.0163 21.6425 36.8401 21.6451 36.6666C21.6502 34.5151 21.676 32.3796 21.7792 30.2334C21.8282 29.2164 21.8514 28.1993 21.8643 27.1796ZM21.9029 17.5806C21.8952 16.1845 21.8307 14.7884 21.7792 13.3923C21.7147 13.395 21.6528 13.395 21.5883 13.3976C21.0622 13.4243 20.531 13.4457 20.0049 13.4404C18.9295 13.4297 17.8464 13.4083 16.771 13.4243C15.0767 13.4484 13.3824 13.5017 11.6906 13.5471C11.7732 16.2245 11.67 18.9019 11.6777 21.5846C11.6777 22.0251 11.6906 22.4628 11.6932 22.9006C12.1522 22.906 12.6087 22.9086 13.0677 22.9166C14.3185 22.938 15.5718 22.9567 16.8277 22.9327C17.818 22.9166 18.8109 22.898 19.8012 22.9166C20.4975 22.9327 21.1963 22.938 21.8926 22.9647C21.9004 21.1709 21.9107 19.377 21.9029 17.5806ZM64.6038 28.1299C64.6631 28.5837 64.6219 29.0482 64.3588 29.4379C63.7218 30.3856 63.1029 31.3412 62.4608 32.2835C61.2152 34.1334 59.8819 35.9165 58.6492 37.7771C58.0844 38.6313 57.5532 39.5068 57.0219 40.3797C56.4572 41.314 55.8305 42.1896 55.2038 43.0758C53.9479 44.8589 52.7642 46.6981 51.5341 48.5026C50.3066 50.3125 49.0249 52.0796 47.7483 53.8521C46.5053 55.5845 45.301 57.3463 44.107 59.1188C42.9697 60.8031 41.7783 62.4528 40.6126 64.1158C40.0324 64.946 39.465 65.7895 38.9054 66.6357C38.3406 67.4899 37.8042 68.3708 37.224 69.2117C36.6541 70.0472 36.0686 70.872 35.4755 71.6889C34.8695 72.5217 34.3047 73.3786 33.6832 74.2034C33.3789 74.6145 32.7368 74.8147 32.2622 74.8147C32.2107 74.8147 32.1642 74.788 32.1127 74.7827C31.7491 75.0336 31.3416 75.2151 30.8851 75.1911C30.5705 75.1751 30.2585 75.1617 29.949 75.1457C27.8111 75.0523 25.6732 75.0309 23.5354 75.0469C21.3279 75.0576 19.1178 75.0042 16.9154 74.9989C14.677 74.9989 12.4437 74.9428 10.2104 74.8788C7.98222 74.8174 5.75408 74.8521 3.52594 74.7747C2.34997 74.7373 1.36742 73.7897 1.36742 72.5457C1.36742 72.2121 1.46026 71.8971 1.59952 71.6034C1.59179 67.2951 1.59436 62.9867 1.44221 58.681C1.28232 54.1457 1.02186 49.6158 0.890334 45.0752C0.763969 40.6386 0.895491 36.1968 0.936753 31.755C0.972857 27.1823 0.9677 22.607 0.980594 18.0344C0.990909 15.8535 0.94449 13.6753 0.94449 11.4944C0.949648 9.1213 0.890334 6.75089 0.869703 4.37781C0.864545 4.06015 0.934175 3.75585 1.0528 3.47823C0.985752 3.27002 0.923859 3.05647 0.923859 2.82423C0.923859 1.6764 1.85225 0.635343 2.97922 0.635343C2.99727 0.635343 3.0179 0.635343 3.03595 0.635343C3.92566 0.664706 4.81795 0.696738 5.71539 0.715424C7.85327 0.768811 9.986 0.803514 12.1239 0.787498C14.2257 0.774151 16.33 0.846224 18.4266 0.875587C20.5207 0.90762 22.6121 0.891603 24.7062 0.918297C26.2638 0.934313 27.8266 0.982362 29.3868 0.963677C29.7736 0.662037 30.2275 0.448486 30.733 0.448486C31.976 0.448486 33.0024 1.51624 33.0075 2.79754C33.0075 3.14189 33.0153 3.48357 33.0153 3.82792L33.0256 3.83059C33.678 4.15358 34.3305 4.46323 34.9829 4.77555C36.2182 5.30409 37.4509 5.81661 38.6991 6.31578C39.9756 6.8283 41.278 7.2901 42.5648 7.78127C43.8156 8.26443 45.1024 8.65682 46.3764 9.09193C47.8928 9.62047 49.4452 10.0663 50.8327 10.9205C51.8229 11.5371 52.184 12.8905 51.5934 13.9315C51.5547 14.0009 51.4877 14.0436 51.4413 14.105C51.1756 14.9699 50.8842 15.8241 50.5954 16.681C52.7281 18.045 54.8402 19.4384 56.8749 20.9547C58.0457 21.8249 59.1727 22.7592 60.359 23.6187C60.9057 24.0111 61.4447 24.4168 61.9811 24.8252C62.2364 25.0174 62.4917 25.215 62.7419 25.4072C63.0513 25.6447 63.3866 25.869 63.6728 26.1386C63.9385 26.3868 64.1422 26.6725 64.3588 26.9741C64.5832 27.2811 64.627 27.7162 64.6038 28.1299ZM29.0954 24.4302C29.1392 22.0918 29.1315 19.7561 29.0464 17.4231C28.9561 15.0233 28.8865 12.6235 28.7808 10.2238C28.7111 8.57407 28.6209 6.92974 28.5487 5.28006C28.4455 5.27739 28.3449 5.27205 28.2418 5.26938C24.1362 5.22934 20.0307 5.17596 15.9251 5.08253C13.813 5.03181 11.6984 4.9624 9.58111 4.97308C8.14468 4.97842 6.71084 4.98643 5.27441 4.99444C5.25378 7.40756 5.23314 9.82067 5.26409 12.2365C5.3002 14.6362 5.36467 17.0413 5.37498 19.4411C5.39046 24.0485 5.33888 28.6558 5.3002 33.2632C5.25893 37.705 5.28988 42.1468 5.40593 46.5887C5.46524 48.7856 5.48587 50.9798 5.59161 53.1714C5.7025 55.5151 5.8366 57.8561 5.91655 60.2052C5.98617 62.346 5.94749 64.4869 6.04549 66.6277C6.10222 67.8903 6.12543 69.1529 6.1538 70.4156C10.0118 70.5811 13.8723 70.6158 17.7329 70.5917C19.9714 70.5757 22.2098 70.5864 24.4483 70.4876C25.5237 70.4423 26.5965 70.3568 27.6719 70.3488C27.904 70.3462 28.1386 70.3515 28.3733 70.3515C28.4636 68.838 28.5538 67.3271 28.5951 65.8055C28.6596 63.5472 28.6699 61.297 28.6647 59.036C28.6493 54.402 28.6596 49.7733 28.8143 45.1392C28.9742 40.4171 28.9587 35.695 28.9639 30.9702C28.9665 28.7893 29.0567 26.6137 29.0954 24.4302ZM33.1133 8.65415C33.1313 9.09193 33.1339 9.52971 33.1571 9.97016C33.2835 12.2285 33.3634 14.4948 33.4769 16.7557C33.5981 19.1235 33.6523 21.4939 33.6033 23.8616C33.5594 26.0692 33.4692 28.2768 33.4588 30.4843C33.4434 32.8227 33.4588 35.1557 33.4485 37.4861C33.4382 39.8298 33.3634 42.1602 33.2938 44.4986C33.2087 47.4482 33.1906 50.4006 33.1855 53.3529C34.1242 50.9691 35.0371 48.5747 35.9526 46.1856C36.4735 44.8322 36.9687 43.4682 37.4741 42.1121C37.9951 40.7134 38.5495 39.3226 39.0576 37.9186C39.808 35.8444 40.4295 33.7303 41.131 31.6428C41.8273 29.5901 42.4771 27.5267 43.1889 25.4846C43.9058 23.4372 44.6717 21.4165 45.3784 19.369C46.0102 17.5378 46.5569 15.6826 47.0985 13.8247C45.9122 13.3496 44.6872 12.9839 43.4777 12.5755C42.196 12.1457 40.9401 11.6439 39.6662 11.1767C38.2942 10.6695 36.9068 10.1917 35.5348 9.68454C34.7122 9.38023 33.9205 8.9985 33.1133 8.65415ZM36.4993 55.9769C36.4967 55.9822 36.4942 55.9902 36.4942 55.9902C36.5019 55.9716 36.5096 55.9555 36.5174 55.9369C36.5096 55.9502 36.5045 55.9635 36.4993 55.9769ZM59.949 28.5223C59.2656 27.9805 58.5847 27.4386 57.8936 26.9154C56.8363 26.1172 55.8202 25.263 54.719 24.5316C53.5611 23.7628 52.4058 23.0021 51.2246 22.2653C50.5155 21.8222 49.8011 21.3951 49.0868 20.9627C48.8624 21.5713 48.6458 22.1826 48.4163 22.7912C47.8902 24.1953 47.3744 25.5994 46.8947 27.0195C46.4047 28.477 45.9638 29.9424 45.4867 31.4053C44.7955 33.5461 44.1199 35.6976 43.3875 37.8278C42.7015 39.8138 41.8892 41.7571 41.1542 43.7218C40.4089 45.7025 39.6326 47.6698 38.9157 49.6665C38.2194 51.6151 37.4896 53.5584 36.7082 55.4724C36.6489 55.6112 36.5922 55.7553 36.5354 55.8968C36.569 55.8194 36.5999 55.742 36.6334 55.6619C36.5741 55.8061 36.5148 55.9502 36.4555 56.0943C36.4477 56.1157 36.4374 56.1371 36.4297 56.1611C36.4374 56.1424 36.4452 56.1237 36.4529 56.105C36.0996 56.9459 35.7308 57.7787 35.3801 58.6249C34.8953 59.8715 34.4362 61.1315 34.0468 62.4181C33.6523 63.7234 33.3608 65.0741 33.0901 66.4168C33.0772 67.0281 33.0514 67.6394 33.0333 68.248C33.856 67.0228 34.6761 65.7975 35.4729 64.5509C36.5844 62.8185 37.7552 61.1395 38.9183 59.4444C40.0839 57.7494 41.2367 56.0383 42.3791 54.3245C43.5809 52.512 44.842 50.7476 46.0901 48.9698C47.346 47.1813 48.5736 45.3768 49.8114 43.575C51.039 41.7918 52.3439 40.0727 53.5327 38.2629C54.7139 36.4584 55.8821 34.6512 57.1122 32.8788C57.7389 31.9819 58.3552 31.0743 58.9406 30.148C59.2733 29.6061 59.6111 29.0669 59.949 28.5223Z" fill="#2E5283"/>
</svg>
