<svg width="62" height="63" viewBox="0 0 62 63" fill="none" xmlns="http://www.w3.org/2000/svg">
<path fill-rule="evenodd" clip-rule="evenodd" d="M30.8221 42.9805C37.161 42.9805 42.2996 37.8418 42.2996 31.503C42.2996 25.1641 37.161 20.0254 30.8221 20.0254C24.4833 20.0254 19.3446 25.1641 19.3446 31.503C19.3446 37.8418 24.4833 42.9805 30.8221 42.9805ZM30.8221 37.8837C27.2983 37.8837 24.4414 35.0268 24.4414 31.503C24.4414 27.9788 27.2983 25.1222 30.8221 25.1222C34.346 25.1222 37.2028 27.9788 37.2028 31.503C37.2028 35.0268 34.346 37.8837 30.8221 37.8837Z" fill="#2E5283"/>
<path fill-rule="evenodd" clip-rule="evenodd" d="M28.2716 3.44265C28.2716 2.03401 29.4135 0.89209 30.8221 0.89209C32.2308 0.89209 33.3727 2.03401 33.3727 3.44265V6.11915C45.4225 7.31551 55.0055 16.8983 56.2017 28.9482H58.8783C60.2869 28.9482 61.4288 30.0901 61.4288 31.4988C61.4288 32.9074 60.2869 34.0493 58.8783 34.0493H56.2017C55.0055 46.0992 45.4225 55.6821 33.3727 56.8783V59.5549C33.3727 60.9636 32.2308 62.1054 30.8221 62.1054C29.4135 62.1054 28.2716 60.9636 28.2716 59.5549V56.8783C16.2217 55.6821 6.63888 46.0992 5.44251 34.0493H2.76601C1.35738 34.0493 0.215454 32.9074 0.215454 31.4988C0.215454 30.0901 1.35738 28.9482 2.76601 28.9482H5.44251C6.63888 16.8983 16.2217 7.31551 28.2716 6.11915V3.44265ZM30.8221 51.9073C19.5508 51.9073 10.4136 42.7702 10.4136 31.4988C10.4136 20.2274 19.5508 11.0902 30.8221 11.0902C42.0935 11.0902 51.2307 20.2274 51.2307 31.4988C51.2307 42.7702 42.0935 51.9073 30.8221 51.9073Z" fill="#2E5283"/>
</svg>
