<svg width="65" height="66" viewBox="0 0 65 66" fill="none" xmlns="http://www.w3.org/2000/svg">
<path d="M43.0408 40.1504C43.0408 40.1504 65.2341 24.1357 61.6545 3.02535C40.8931 0.113576 25.859 21.9519 25.859 21.9519L12.2567 22.6798L2.94983 37.9666L5.81347 41.6063L17.268 38.6946L27.2908 48.8858L23.7112 59.077L27.2908 62.7167L42.4488 54.0207L43.0408 40.1504Z" stroke="#2E5283" stroke-width="4.75" stroke-linecap="round" stroke-linejoin="round"/>
<path d="M50.6839 19.0116C53.2645 19.0116 55.3566 16.8844 55.3566 14.2603C55.3566 11.6363 53.2645 9.50903 50.6839 9.50903C48.1032 9.50903 46.0111 11.6363 46.0111 14.2603C46.0111 16.8844 48.1032 19.0116 50.6839 19.0116Z" fill="#2E5283"/>
</svg>
