<svg width="63" height="76" viewBox="0 0 63 76" fill="none" xmlns="http://www.w3.org/2000/svg">
<path d="M44.7337 17.2905C44.7337 10.3143 39.0784 4.65898 32.1023 4.65898C25.1262 4.65898 19.471 10.3143 19.471 17.2905C19.471 24.2666 25.1262 29.9219 32.1023 29.9219C39.0784 29.9219 44.7337 24.2666 44.7337 17.2905ZM48.9441 17.2905C48.9441 26.592 41.4038 34.1324 32.1023 34.1324C22.8008 34.1324 15.2605 26.592 15.2605 17.2905C15.2605 7.98889 22.8008 0.448486 32.1023 0.448486C41.4038 0.448486 48.9441 7.98889 48.9441 17.2905Z" fill="#2E5283"/>
<path d="M42.6286 47.8167C42.6286 46.654 41.686 45.7115 40.5233 45.7115H22.6289C21.4662 45.7115 20.5237 46.654 20.5237 47.8167V70.9744H42.6286V47.8167ZM46.839 75.1849H16.3132V47.8167C16.3132 44.4376 18.967 41.6783 22.3041 41.5092L22.6289 41.501H40.5233L40.8482 41.5092C44.1853 41.6783 46.839 44.4376 46.839 47.8167V75.1849Z" fill="#2E5283"/>
<path d="M60.4819 14.6591C61.5717 14.6378 62.4844 15.449 62.6128 16.5084L62.6282 16.7232L62.6324 17.1827C62.6336 22.0055 61.2065 28.9413 56.8584 34.7957C52.2914 40.9445 44.6351 45.7115 32.6288 45.7115C20.6284 45.7115 12.6639 40.9541 7.67341 34.8769C2.90544 29.0705 0.936106 22.1712 0.559017 17.3482L0.528179 16.8877L0.526123 16.6729C0.571216 15.6066 1.41767 14.7272 2.50594 14.6632C3.59388 14.5993 4.53773 15.3729 4.70779 16.4262L4.73041 16.641L4.79311 17.4356C5.1938 21.5295 6.93109 27.3381 10.9268 32.2042C15.1204 37.311 21.8928 41.501 32.6288 41.501C43.3587 41.501 49.7376 37.3206 53.4775 32.2854C57.0572 27.4658 58.3381 21.6929 58.4178 17.6011V16.8055L58.425 16.5906C58.5118 15.5269 59.392 14.6805 60.4819 14.6591Z" fill="#2E5283"/>
</svg>
