<svg width="68" height="68" viewBox="0 0 68 68" fill="none" xmlns="http://www.w3.org/2000/svg">
<path d="M37.5227 5.07427C37.5227 7.83815 35.2414 10.1227 32.4907 10.1227C29.7485 10.1227 27.4588 7.83815 27.4588 5.07427C27.4588 2.32523 29.7485 0.0258789 32.4907 0.0258789C35.2414 0.0258789 37.5227 2.32523 37.5227 5.07427ZM32.4907 14.2441C29.5286 14.2441 27.2368 16.5434 27.2368 19.5279C27.2368 22.5082 29.5286 24.8075 32.5034 24.8075C35.4634 24.8075 37.7553 22.5082 37.7553 19.5279C37.7553 16.5434 35.4317 14.2441 32.4696 14.2441H32.4907ZM32.4907 28.475C29.5286 28.475 27.0042 30.9928 27.0042 33.9752C27.0042 36.9576 29.5265 39.4754 32.5013 39.4754C35.4613 39.4754 37.9836 36.9576 37.9836 33.9752C37.9836 30.9928 35.4613 28.475 32.5013 28.475H32.4907ZM32.4907 42.9138C29.5286 42.9138 27.2368 45.2132 27.2368 48.1828C27.2368 51.1673 29.5286 53.4667 32.5034 53.4667C35.4634 53.4667 37.7553 51.1673 37.7553 48.1828C37.7553 45.4444 35.4317 42.9138 32.4696 42.9138H32.4907ZM32.4907 57.5966C29.7485 57.5966 27.4588 59.8811 27.4588 62.645C27.4588 65.3834 29.7485 67.6827 32.4907 67.6827C35.2414 67.6827 37.5227 65.394 37.5227 62.6344C37.5227 59.8832 35.2414 57.5966 32.4907 57.5966ZM46.4428 13.5589C43.2376 13.5589 40.4975 16.3228 40.4975 19.5258C40.4975 22.7266 43.2376 25.4799 46.4428 25.4799C49.6375 25.4799 52.3776 22.7288 52.3776 19.5258C52.3776 16.3207 49.6375 13.5589 46.4428 13.5589ZM46.4428 27.7793C43.0071 27.7793 40.267 30.5283 40.267 33.9752C40.267 37.4115 43.0177 40.1605 46.4428 40.1605C49.868 40.1605 52.6081 37.4115 52.6081 33.9646C52.6081 30.5283 49.868 27.7793 46.4428 27.7793ZM46.4428 42.2287C43.2376 42.2287 40.4975 44.9926 40.4975 48.1828C40.4975 51.3985 43.2376 54.1497 46.4428 54.1497C49.6375 54.1497 52.3776 51.3858 52.3776 48.1828C52.3776 44.982 49.6375 42.2287 46.4428 42.2287ZM60.8347 27.092C57.1813 27.092 53.9866 30.0765 53.9866 33.9752C53.9866 37.6427 56.9487 40.8584 60.8347 40.8584C64.7229 40.8584 67.6956 37.84 67.6956 33.9413C67.4651 30.0298 64.4903 27.0708 60.8347 27.0708V27.092ZM18.3166 14.9398C15.807 14.9398 13.7582 17.008 13.7582 19.5279C13.7582 22.0458 15.807 24.1118 18.3166 24.1118C20.839 24.1118 22.8856 22.0436 22.8856 19.5279C22.8856 17.008 20.839 14.9526 18.3166 14.9526V14.9398ZM18.3166 29.1602C15.5765 29.1602 13.5151 31.2135 13.5151 33.9773C13.5151 36.7285 15.5533 38.7945 18.2955 38.7945C21.0462 38.7945 23.0737 36.7306 23.0737 33.9773C23.0737 31.2135 21.0039 29.1602 18.2616 29.1602H18.3166ZM18.3166 43.5968C15.807 43.5968 13.7582 45.665 13.7582 48.1807C13.7582 50.7113 15.807 52.7688 18.3166 52.7688C20.839 52.7688 22.8856 50.69 22.8856 48.151C22.8856 45.5971 20.839 43.5672 18.3166 43.5672V43.5968ZM4.15731 29.8432C1.86543 29.8432 0.0386963 31.6759 0.0386963 33.9752C0.0386963 36.264 1.86543 38.0967 4.15731 38.0967C6.43861 38.0967 8.26535 36.264 8.26535 33.9752C8.26535 31.6759 6.43861 29.8432 4.15731 29.8432Z" fill="#2E5283"/>
</svg>
